<svg width="612" height="344" viewBox="0 0 612 344" fill="none" xmlns="http://www.w3.org/2000/svg">
<rect width="612" height="344" rx="16" fill="#161127" fill-opacity="0.74902"/>
<path d="M24 40C24 31.1634 31.1634 24 40 24H192C200.837 24 208 31.1634 208 40V111C208 119.837 200.837 127 192 127H40C31.1634 127 24 119.837 24 111V40Z" fill="#302555"/>
<path d="M114.158 240.456H56.6867C54.703 240.456 53.0948 243.397 53.0948 247.025V254.479C53.0948 258.106 54.703 261.048 56.6867 261.048H114.158C116.142 261.048 117.75 258.106 117.75 254.479V247.025C117.75 243.397 116.142 240.456 114.158 240.456Z" fill="#A99CD3" fill-opacity="0.4"/>
<path d="M40.1638 240.55H30.4655C26.8947 240.55 24 243.461 24 247.053V254.432C24 258.023 26.8947 260.935 30.4655 260.935H40.1638C43.7346 260.935 46.6293 258.023 46.6293 254.432V247.053C46.6293 243.461 43.7346 240.55 40.1638 240.55Z" fill="#A99CD3" fill-opacity="0.4"/>
<path d="M97.875 304.399H55.7289C54.2741 304.399 53.0948 307.34 53.0948 310.967V318.421C53.0948 322.049 54.2741 324.99 55.7289 324.99H97.875C99.3297 324.99 100.509 322.049 100.509 318.421V310.967C100.509 307.34 99.3297 304.399 97.875 304.399Z" fill="#A99CD3" fill-opacity="0.4"/>
<path d="M40.1638 304.615H30.4655C26.8947 304.615 24 307.526 24 311.118V318.497C24 322.088 26.8947 325 30.4655 325H40.1638C43.7346 325 46.6293 322.088 46.6293 318.497V311.118C46.6293 307.526 43.7346 304.615 40.1638 304.615Z" fill="#A99CD3" fill-opacity="0.4"/>
<path d="M143.672 209.026H58.4228C55.4803 209.026 53.0948 211.813 53.0948 215.249V222.311C53.0948 225.748 55.4803 228.534 58.4228 228.534H143.672C146.614 228.534 149 225.748 149 222.311V215.249C149 211.813 146.614 209.026 143.672 209.026Z" fill="#A99CD3" fill-opacity="0.4"/>
<path d="M40.1638 208.518H30.4655C26.8947 208.518 24 211.429 24 215.021V222.4C24 225.991 26.8947 228.903 30.4655 228.903H40.1638C43.7346 228.903 46.6293 225.991 46.6293 222.4V215.021C46.6293 211.429 43.7346 208.518 40.1638 208.518Z" fill="#A99CD3" fill-opacity="0.4"/>
<path d="M133.495 272.969H57.8242C55.2123 272.969 53.0948 275.755 53.0948 279.192V286.254C53.0948 289.691 55.2123 292.477 57.8242 292.477H133.495C136.107 292.477 138.224 289.691 138.224 286.254V279.192C138.224 275.755 136.107 272.969 133.495 272.969Z" fill="#A99CD3" fill-opacity="0.4"/>
<path d="M40.1638 272.583H30.4655C26.8947 272.583 24 275.494 24 279.086V286.465C24 290.056 26.8947 292.968 30.4655 292.968H40.1638C43.7346 292.968 46.6293 290.056 46.6293 286.465V279.086C46.6293 275.494 43.7346 272.583 40.1638 272.583Z" fill="#A99CD3" fill-opacity="0.4"/>
<path d="M113.14 176.513H56.6269C54.6762 176.513 53.0948 179.455 53.0948 183.082V190.536C53.0948 194.164 54.6762 197.105 56.6269 197.105H113.14C115.091 197.105 116.672 194.164 116.672 190.536V183.082C116.672 179.455 115.091 176.513 113.14 176.513Z" fill="#A99CD3" fill-opacity="0.4"/>
<path d="M40.1638 176.485H30.4655C26.8947 176.485 24 179.396 24 182.988V190.367C24 193.958 26.8947 196.87 30.4655 196.87H40.1638C43.7346 196.87 46.6293 193.958 46.6293 190.367V182.988C46.6293 179.396 43.7346 176.485 40.1638 176.485Z" fill="#A99CD3" fill-opacity="0.4"/>
<path d="M118.228 144H56.9263C54.8102 144 53.0948 146.941 53.0948 150.569V158.023C53.0948 161.65 54.8102 164.592 56.9263 164.592H118.228C120.345 164.592 122.06 161.65 122.06 158.023V150.569C122.06 146.941 120.345 144 118.228 144Z" fill="#A99CD3" fill-opacity="0.4"/>
<path d="M40.1638 144.453H30.4655C26.8947 144.453 24 147.364 24 150.956V158.335C24 161.926 26.8947 164.838 30.4655 164.838H40.1638C43.7346 164.838 46.6293 161.926 46.6293 158.335V150.956C46.6293 147.364 43.7346 144.453 40.1638 144.453Z" fill="#A99CD3" fill-opacity="0.4"/>
</svg>
