<svg width="608" height="503" viewBox="0 0 608 503" fill="none" xmlns="http://www.w3.org/2000/svg">
<path fill-rule="evenodd" clip-rule="evenodd" d="M400.174 480.338C433.326 504.756 478.512 504.756 511.664 480.338L590.022 422.626L584.36 414.938L607.31 412.376L598.054 433.534L592.394 425.846L514.036 483.558C479.472 509.016 432.364 509.016 397.802 483.558L360.272 455.916C327.12 431.5 281.934 431.5 248.782 455.916L211.252 483.558C176.688 509.016 129.58 509.016 95.018 483.558L0.555969 413.986L2.92798 410.766L97.39 480.338C130.542 504.756 175.728 504.756 208.88 480.338L246.41 452.696C280.972 427.24 328.08 427.24 362.644 452.696L400.174 480.338ZM400.174 69.572C433.326 93.99 478.512 93.99 511.664 69.572L590.022 11.86L584.36 4.17401L607.31 1.60999L598.056 22.768L592.394 15.082L514.036 72.794C479.472 98.25 432.364 98.25 397.802 72.794L360.272 45.152C327.12 20.734 281.934 20.734 248.782 45.152L211.252 72.794C176.688 98.25 129.58 98.25 95.018 72.794L0.555969 3.21997L2.92798 0L97.39 69.572C130.542 93.99 175.728 93.99 208.88 69.572L246.41 41.93C280.972 16.474 328.08 16.474 362.644 41.93L400.174 69.572ZM511.108 274.574C477.954 298.992 432.77 298.992 399.618 274.574L362.088 246.932C327.524 221.476 280.416 221.476 245.852 246.932L208.324 274.574C175.17 298.992 129.986 298.992 96.834 274.574L2.37195 205.002L0 208.222L94.46 277.796C129.024 303.252 176.132 303.252 210.696 277.796L248.226 250.154C281.378 225.736 326.562 225.736 359.716 250.154L397.246 277.796C431.808 303.252 478.916 303.252 513.48 277.796L591.836 220.084L597.498 227.77L606.754 206.612L583.802 209.176L589.464 216.862L511.108 274.574Z" fill="url(#paint0_linear_383_255)"/>
<defs>
<linearGradient id="paint0_linear_383_255" x1="525.96" y1="218.612" x2="9.46603" y2="218.612" gradientUnits="userSpaceOnUse">
<stop offset="0.201869" stop-color="#FBC6CF" stop-opacity="0.8"/>
<stop offset="1" stop-color="#62B5F9" stop-opacity="0"/>
</linearGradient>
</defs>
</svg>
