<svg width="25" height="25" viewBox="0 0 25 25" fill="none" xmlns="http://www.w3.org/2000/svg">
<path d="M13 13V15V17" stroke="#C2B1E0" stroke-width="1.5" stroke-linecap="round" stroke-linejoin="round"/>
<path d="M5 13V19C5 20.1046 5.89543 21 7 21H19C20.1046 21 21 20.1046 21 19V13" stroke="url(#paint0_linear_459_212)" stroke-width="1.5" stroke-linecap="round" stroke-linejoin="round"/>
<path d="M19 7H7C5.89543 7 5 7.89543 5 9V13C5 14.1046 5.89543 15 7 15H13H19C20.1046 15 21 14.1046 21 13V9C21 7.89543 20.1046 7 19 7Z" stroke="#C2B1E0" stroke-width="1.5" stroke-linecap="round" stroke-linejoin="round"/>
<path d="M16 7V6C16 4.89543 15.1046 4 14 4H12C10.8954 4 10 4.89543 10 6V7" stroke="#C2B1E0" stroke-width="1.5" stroke-linecap="round" stroke-linejoin="round"/>
<defs>
<linearGradient id="paint0_linear_459_212" x1="13" y1="13" x2="13" y2="21" gradientUnits="userSpaceOnUse">
<stop stop-color="#C2B1E0"/>
<stop offset="1" stop-color="#493880"/>
</linearGradient>
</defs>
</svg>
