<svg width="20" height="20" viewBox="0 0 20 20" fill="none" xmlns="http://www.w3.org/2000/svg">
<mask id="path-1-inside-1_621_174" fill="white">
<path d="M14.4444 4.44444L14.5584 4.44987C15.1185 4.50691 15.5556 4.98036 15.5556 5.55556V14.4444C15.5556 15.0581 15.0581 15.5556 14.4444 15.5556H5.55556C4.94191 15.5556 4.44444 15.0581 4.44444 14.4444V5.55556L4.44987 5.44162C4.50691 4.88148 4.98036 4.44444 5.55556 4.44444H14.4444Z"/>
<path fill-rule="evenodd" clip-rule="evenodd" d="M15.5556 2.22222C16.7829 2.22222 17.7778 3.21715 17.7778 4.44444V15.5556C17.7778 16.7829 16.7829 17.7778 15.5556 17.7778H4.44444C3.21715 17.7778 2.22222 16.7829 2.22222 15.5556V4.44444C2.22222 3.21715 3.21715 2.22222 4.44444 2.22222H15.5556ZM5.55556 3.33333L5.32878 3.34527C4.20803 3.45889 3.33333 4.40483 3.33333 5.55556V14.4444L3.34527 14.6712C3.45133 15.7174 4.28261 16.5487 5.32878 16.6547L5.55556 16.6667H14.4444L14.6712 16.6547C15.7174 16.5487 16.5487 15.7174 16.6547 14.6712L16.6667 14.4444V5.55556C16.6667 4.40483 15.792 3.45889 14.6712 3.34527L14.4444 3.33333H5.55556Z"/>
<path d="M0 4.44444C0 4.29103 0.124365 4.16667 0.277778 4.16667H3.05556C3.20897 4.16667 3.33333 4.29103 3.33333 4.44444C3.33333 4.59786 3.20897 4.72222 3.05556 4.72222H0.277778C0.124365 4.72222 0 4.59786 0 4.44444Z"/>
<path d="M0 6.66667C0 6.51325 0.124365 6.38889 0.277778 6.38889H3.05556C3.20897 6.38889 3.33333 6.51325 3.33333 6.66667C3.33333 6.82008 3.20897 6.94444 3.05556 6.94444H0.277778C0.124365 6.94444 0 6.82008 0 6.66667Z"/>
<path d="M0 8.88889C0 8.73548 0.124365 8.61111 0.277778 8.61111H3.05556C3.20897 8.61111 3.33333 8.73548 3.33333 8.88889C3.33333 9.0423 3.20897 9.16667 3.05556 9.16667H0.277778C0.124365 9.16667 0 9.0423 0 8.88889Z"/>
<path d="M0 11.1111C0 10.9577 0.124365 10.8333 0.277778 10.8333H3.05556C3.20897 10.8333 3.33333 10.9577 3.33333 11.1111C3.33333 11.2645 3.20897 11.3889 3.05556 11.3889H0.277778C0.124365 11.3889 0 11.2645 0 11.1111Z"/>
<path d="M0 13.3333C0 13.1799 0.124365 13.0556 0.277778 13.0556H3.05556C3.20897 13.0556 3.33333 13.1799 3.33333 13.3333C3.33333 13.4867 3.20897 13.6111 3.05556 13.6111H0.277778C0.124365 13.6111 0 13.4867 0 13.3333Z"/>
<path d="M0 15.5556C0 15.4021 0.124365 15.2778 0.277778 15.2778H3.05556C3.20897 15.2778 3.33333 15.4021 3.33333 15.5556C3.33333 15.709 3.20897 15.8333 3.05556 15.8333H0.277778C0.124365 15.8333 0 15.709 0 15.5556Z"/>
<path d="M1.11111 5.55556C1.11111 5.40214 1.23548 5.27778 1.38889 5.27778H3.05556C3.20897 5.27778 3.33333 5.40214 3.33333 5.55556C3.33333 5.70897 3.20897 5.83333 3.05556 5.83333H1.38889C1.23548 5.83333 1.11111 5.70897 1.11111 5.55556Z"/>
<path d="M1.11111 7.77778C1.11111 7.62437 1.23548 7.5 1.38889 7.5H3.05556C3.20897 7.5 3.33333 7.62437 3.33333 7.77778C3.33333 7.93119 3.20897 8.05556 3.05556 8.05556H1.38889C1.23548 8.05556 1.11111 7.93119 1.11111 7.77778Z"/>
<path d="M1.11111 10C1.11111 9.84659 1.23548 9.72222 1.38889 9.72222H3.05556C3.20897 9.72222 3.33333 9.84659 3.33333 10C3.33333 10.1534 3.20897 10.2778 3.05556 10.2778H1.38889C1.23548 10.2778 1.11111 10.1534 1.11111 10Z"/>
<path d="M1.11111 12.2222C1.11111 12.0688 1.23548 11.9444 1.38889 11.9444H3.05556C3.20897 11.9444 3.33333 12.0688 3.33333 12.2222C3.33333 12.3756 3.20897 12.5 3.05556 12.5H1.38889C1.23548 12.5 1.11111 12.3756 1.11111 12.2222Z"/>
<path d="M1.11111 14.4444C1.11111 14.291 1.23548 14.1667 1.38889 14.1667H3.05556C3.20897 14.1667 3.33333 14.291 3.33333 14.4444C3.33333 14.5979 3.20897 14.7222 3.05556 14.7222H1.38889C1.23548 14.7222 1.11111 14.5979 1.11111 14.4444Z"/>
<path d="M16.6667 4.44444C16.6667 4.29103 16.791 4.16667 16.9444 4.16667H19.7222C19.8756 4.16667 20 4.29103 20 4.44444C20 4.59786 19.8756 4.72222 19.7222 4.72222H16.9444C16.791 4.72222 16.6667 4.59786 16.6667 4.44444Z"/>
<path d="M16.6667 6.66667C16.6667 6.51325 16.791 6.38889 16.9444 6.38889H19.7222C19.8756 6.38889 20 6.51325 20 6.66667C20 6.82008 19.8756 6.94444 19.7222 6.94444H16.9444C16.791 6.94444 16.6667 6.82008 16.6667 6.66667Z"/>
<path d="M16.6667 8.88889C16.6667 8.73548 16.791 8.61111 16.9444 8.61111H19.7222C19.8756 8.61111 20 8.73548 20 8.88889C20 9.0423 19.8756 9.16667 19.7222 9.16667H16.9444C16.791 9.16667 16.6667 9.0423 16.6667 8.88889Z"/>
<path d="M16.6667 11.1111C16.6667 10.9577 16.791 10.8333 16.9444 10.8333H19.7222C19.8756 10.8333 20 10.9577 20 11.1111C20 11.2645 19.8756 11.3889 19.7222 11.3889H16.9444C16.791 11.3889 16.6667 11.2645 16.6667 11.1111Z"/>
<path d="M16.6667 13.3333C16.6667 13.1799 16.791 13.0556 16.9444 13.0556H19.7222C19.8756 13.0556 20 13.1799 20 13.3333C20 13.4867 19.8756 13.6111 19.7222 13.6111H16.9444C16.791 13.6111 16.6667 13.4867 16.6667 13.3333Z"/>
<path d="M16.6667 15.5556C16.6667 15.4021 16.791 15.2778 16.9444 15.2778H19.7222C19.8756 15.2778 20 15.4021 20 15.5556C20 15.709 19.8756 15.8333 19.7222 15.8333H16.9444C16.791 15.8333 16.6667 15.709 16.6667 15.5556Z"/>
<path d="M16.6667 5.55556C16.6667 5.40214 16.791 5.27778 16.9444 5.27778H18.6111C18.7645 5.27778 18.8889 5.40214 18.8889 5.55556C18.8889 5.70897 18.7645 5.83333 18.6111 5.83333H16.9444C16.791 5.83333 16.6667 5.70897 16.6667 5.55556Z"/>
<path d="M16.6667 7.77778C16.6667 7.62437 16.791 7.5 16.9444 7.5H18.6111C18.7645 7.5 18.8889 7.62437 18.8889 7.77778C18.8889 7.93119 18.7645 8.05556 18.6111 8.05556H16.9444C16.791 8.05556 16.6667 7.93119 16.6667 7.77778Z"/>
<path d="M16.6667 10C16.6667 9.84659 16.791 9.72222 16.9444 9.72222H18.6111C18.7645 9.72222 18.8889 9.84659 18.8889 10C18.8889 10.1534 18.7645 10.2778 18.6111 10.2778H16.9444C16.791 10.2778 16.6667 10.1534 16.6667 10Z"/>
<path d="M16.6667 12.2222C16.6667 12.0688 16.791 11.9444 16.9444 11.9444H18.6111C18.7645 11.9444 18.8889 12.0688 18.8889 12.2222C18.8889 12.3756 18.7645 12.5 18.6111 12.5H16.9444C16.791 12.5 16.6667 12.3756 16.6667 12.2222Z"/>
<path d="M16.6667 14.4444C16.6667 14.291 16.791 14.1667 16.9444 14.1667H18.6111C18.7645 14.1667 18.8889 14.291 18.8889 14.4444C18.8889 14.5979 18.7645 14.7222 18.6111 14.7222H16.9444C16.791 14.7222 16.6667 14.5979 16.6667 14.4444Z"/>
<path d="M15.8333 0C15.9867 6.70587e-09 16.1111 0.124365 16.1111 0.277778V3.05556C16.1111 3.20897 15.9867 3.33333 15.8333 3.33333C15.6799 3.33333 15.5556 3.20897 15.5556 3.05556V0.277778C15.5556 0.124365 15.6799 -6.70587e-09 15.8333 0Z"/>
<path d="M13.6111 0C13.7645 6.70587e-09 13.8889 0.124365 13.8889 0.277778V3.05556C13.8889 3.20897 13.7645 3.33333 13.6111 3.33333C13.4577 3.33333 13.3333 3.20897 13.3333 3.05556V0.277778C13.3333 0.124365 13.4577 -6.70587e-09 13.6111 0Z"/>
<path d="M11.3889 0C11.5423 6.70587e-09 11.6667 0.124365 11.6667 0.277778V3.05556C11.6667 3.20897 11.5423 3.33333 11.3889 3.33333C11.2355 3.33333 11.1111 3.20897 11.1111 3.05556V0.277778C11.1111 0.124365 11.2355 -6.70587e-09 11.3889 0Z"/>
<path d="M9.16667 0C9.32008 6.70587e-09 9.44444 0.124365 9.44444 0.277778V3.05556C9.44444 3.20897 9.32008 3.33333 9.16667 3.33333C9.01325 3.33333 8.88889 3.20897 8.88889 3.05556V0.277778C8.88889 0.124365 9.01325 -6.70587e-09 9.16667 0Z"/>
<path d="M6.94444 0C7.09786 6.70587e-09 7.22222 0.124365 7.22222 0.277778V3.05556C7.22222 3.20897 7.09786 3.33333 6.94444 3.33333C6.79103 3.33333 6.66667 3.20897 6.66667 3.05556V0.277778C6.66667 0.124365 6.79103 -6.70587e-09 6.94444 0Z"/>
<path d="M4.72222 0C4.87563 6.70587e-09 5 0.124365 5 0.277778V3.05556C5 3.20897 4.87563 3.33333 4.72222 3.33333C4.56881 3.33333 4.44444 3.20897 4.44444 3.05556L4.44444 0.277778C4.44444 0.124365 4.56881 -6.70587e-09 4.72222 0Z"/>
<path d="M14.7222 1.11111C14.8756 1.11111 15 1.23548 15 1.38889V3.05556C15 3.20897 14.8756 3.33333 14.7222 3.33333C14.5688 3.33333 14.4444 3.20897 14.4444 3.05556V1.38889C14.4444 1.23548 14.5688 1.11111 14.7222 1.11111Z"/>
<path d="M12.5 1.11111C12.6534 1.11111 12.7778 1.23548 12.7778 1.38889V3.05556C12.7778 3.20897 12.6534 3.33333 12.5 3.33333C12.3466 3.33333 12.2222 3.20897 12.2222 3.05556V1.38889C12.2222 1.23548 12.3466 1.11111 12.5 1.11111Z"/>
<path d="M10.2778 1.11111C10.4312 1.11111 10.5556 1.23548 10.5556 1.38889V3.05556C10.5556 3.20897 10.4312 3.33333 10.2778 3.33333C10.1244 3.33333 10 3.20897 10 3.05556V1.38889C10 1.23548 10.1244 1.11111 10.2778 1.11111Z"/>
<path d="M8.05556 1.11111C8.20897 1.11111 8.33333 1.23548 8.33333 1.38889V3.05556C8.33333 3.20897 8.20897 3.33333 8.05556 3.33333C7.90214 3.33333 7.77778 3.20897 7.77778 3.05556V1.38889C7.77778 1.23548 7.90214 1.11111 8.05556 1.11111Z"/>
<path d="M5.83333 1.11111C5.98675 1.11111 6.11111 1.23548 6.11111 1.38889V3.05556C6.11111 3.20897 5.98675 3.33333 5.83333 3.33333C5.67992 3.33333 5.55556 3.20897 5.55556 3.05556V1.38889C5.55556 1.23548 5.67992 1.11111 5.83333 1.11111Z"/>
<path d="M4.72222 20C4.56881 20 4.44444 19.8756 4.44444 19.7222L4.44445 16.9444C4.44445 16.791 4.56881 16.6667 4.72222 16.6667C4.87564 16.6667 5 16.791 5 16.9444L5 19.7222C5 19.8756 4.87563 20 4.72222 20Z"/>
<path d="M6.94444 20C6.79103 20 6.66667 19.8756 6.66667 19.7222L6.66667 16.9444C6.66667 16.791 6.79103 16.6667 6.94445 16.6667C7.09786 16.6667 7.22222 16.791 7.22222 16.9444L7.22222 19.7222C7.22222 19.8756 7.09786 20 6.94444 20Z"/>
<path d="M9.16667 20C9.01325 20 8.88889 19.8756 8.88889 19.7222V16.9444C8.88889 16.791 9.01325 16.6667 9.16667 16.6667C9.32008 16.6667 9.44444 16.791 9.44444 16.9444V19.7222C9.44444 19.8756 9.32008 20 9.16667 20Z"/>
<path d="M11.3889 20C11.2355 20 11.1111 19.8756 11.1111 19.7222V16.9444C11.1111 16.791 11.2355 16.6667 11.3889 16.6667C11.5423 16.6667 11.6667 16.791 11.6667 16.9444V19.7222C11.6667 19.8756 11.5423 20 11.3889 20Z"/>
<path d="M13.6111 20C13.4577 20 13.3333 19.8756 13.3333 19.7222V16.9444C13.3333 16.791 13.4577 16.6667 13.6111 16.6667C13.7645 16.6667 13.8889 16.791 13.8889 16.9444V19.7222C13.8889 19.8756 13.7645 20 13.6111 20Z"/>
<path d="M15.8333 20C15.6799 20 15.5556 19.8756 15.5556 19.7222V16.9444C15.5556 16.791 15.6799 16.6667 15.8333 16.6667C15.9867 16.6667 16.1111 16.791 16.1111 16.9444V19.7222C16.1111 19.8756 15.9867 20 15.8333 20Z"/>
<path d="M5.83333 18.8889C5.67992 18.8889 5.55556 18.7645 5.55556 18.6111V16.9444C5.55556 16.791 5.67992 16.6667 5.83333 16.6667C5.98675 16.6667 6.11111 16.791 6.11111 16.9444V18.6111C6.11111 18.7645 5.98675 18.8889 5.83333 18.8889Z"/>
<path d="M8.05556 18.8889C7.90214 18.8889 7.77778 18.7645 7.77778 18.6111V16.9444C7.77778 16.791 7.90214 16.6667 8.05556 16.6667C8.20897 16.6667 8.33333 16.791 8.33333 16.9444V18.6111C8.33333 18.7645 8.20897 18.8889 8.05556 18.8889Z"/>
<path d="M10.2778 18.8889C10.1244 18.8889 10 18.7645 10 18.6111V16.9444C10 16.791 10.1244 16.6667 10.2778 16.6667C10.4312 16.6667 10.5556 16.791 10.5556 16.9444V18.6111C10.5556 18.7645 10.4312 18.8889 10.2778 18.8889Z"/>
<path d="M12.5 18.8889C12.3466 18.8889 12.2222 18.7645 12.2222 18.6111V16.9444C12.2222 16.791 12.3466 16.6667 12.5 16.6667C12.6534 16.6667 12.7778 16.791 12.7778 16.9444V18.6111C12.7778 18.7645 12.6534 18.8889 12.5 18.8889Z"/>
<path d="M14.7222 18.8889C14.5688 18.8889 14.4444 18.7645 14.4444 18.6111V16.9444C14.4444 16.791 14.5688 16.6667 14.7222 16.6667C14.8756 16.6667 15 16.791 15 16.9444V18.6111C15 18.7645 14.8756 18.8889 14.7222 18.8889Z"/>
</mask>
<path d="M14.4444 4.44444L14.5584 4.44987C15.1185 4.50691 15.5556 4.98036 15.5556 5.55556V14.4444C15.5556 15.0581 15.0581 15.5556 14.4444 15.5556H5.55556C4.94191 15.5556 4.44444 15.0581 4.44444 14.4444V5.55556L4.44987 5.44162C4.50691 4.88148 4.98036 4.44444 5.55556 4.44444H14.4444Z" fill="white"/>
<path fill-rule="evenodd" clip-rule="evenodd" d="M15.5556 2.22222C16.7829 2.22222 17.7778 3.21715 17.7778 4.44444V15.5556C17.7778 16.7829 16.7829 17.7778 15.5556 17.7778H4.44444C3.21715 17.7778 2.22222 16.7829 2.22222 15.5556V4.44444C2.22222 3.21715 3.21715 2.22222 4.44444 2.22222H15.5556ZM5.55556 3.33333L5.32878 3.34527C4.20803 3.45889 3.33333 4.40483 3.33333 5.55556V14.4444L3.34527 14.6712C3.45133 15.7174 4.28261 16.5487 5.32878 16.6547L5.55556 16.6667H14.4444L14.6712 16.6547C15.7174 16.5487 16.5487 15.7174 16.6547 14.6712L16.6667 14.4444V5.55556C16.6667 4.40483 15.792 3.45889 14.6712 3.34527L14.4444 3.33333H5.55556Z" fill="white"/>
<path d="M0 4.44444C0 4.29103 0.124365 4.16667 0.277778 4.16667H3.05556C3.20897 4.16667 3.33333 4.29103 3.33333 4.44444C3.33333 4.59786 3.20897 4.72222 3.05556 4.72222H0.277778C0.124365 4.72222 0 4.59786 0 4.44444Z" fill="white"/>
<path d="M0 6.66667C0 6.51325 0.124365 6.38889 0.277778 6.38889H3.05556C3.20897 6.38889 3.33333 6.51325 3.33333 6.66667C3.33333 6.82008 3.20897 6.94444 3.05556 6.94444H0.277778C0.124365 6.94444 0 6.82008 0 6.66667Z" fill="white"/>
<path d="M0 8.88889C0 8.73548 0.124365 8.61111 0.277778 8.61111H3.05556C3.20897 8.61111 3.33333 8.73548 3.33333 8.88889C3.33333 9.0423 3.20897 9.16667 3.05556 9.16667H0.277778C0.124365 9.16667 0 9.0423 0 8.88889Z" fill="white"/>
<path d="M0 11.1111C0 10.9577 0.124365 10.8333 0.277778 10.8333H3.05556C3.20897 10.8333 3.33333 10.9577 3.33333 11.1111C3.33333 11.2645 3.20897 11.3889 3.05556 11.3889H0.277778C0.124365 11.3889 0 11.2645 0 11.1111Z" fill="white"/>
<path d="M0 13.3333C0 13.1799 0.124365 13.0556 0.277778 13.0556H3.05556C3.20897 13.0556 3.33333 13.1799 3.33333 13.3333C3.33333 13.4867 3.20897 13.6111 3.05556 13.6111H0.277778C0.124365 13.6111 0 13.4867 0 13.3333Z" fill="white"/>
<path d="M0 15.5556C0 15.4021 0.124365 15.2778 0.277778 15.2778H3.05556C3.20897 15.2778 3.33333 15.4021 3.33333 15.5556C3.33333 15.709 3.20897 15.8333 3.05556 15.8333H0.277778C0.124365 15.8333 0 15.709 0 15.5556Z" fill="white"/>
<path d="M1.11111 5.55556C1.11111 5.40214 1.23548 5.27778 1.38889 5.27778H3.05556C3.20897 5.27778 3.33333 5.40214 3.33333 5.55556C3.33333 5.70897 3.20897 5.83333 3.05556 5.83333H1.38889C1.23548 5.83333 1.11111 5.70897 1.11111 5.55556Z" fill="white"/>
<path d="M1.11111 7.77778C1.11111 7.62437 1.23548 7.5 1.38889 7.5H3.05556C3.20897 7.5 3.33333 7.62437 3.33333 7.77778C3.33333 7.93119 3.20897 8.05556 3.05556 8.05556H1.38889C1.23548 8.05556 1.11111 7.93119 1.11111 7.77778Z" fill="white"/>
<path d="M1.11111 10C1.11111 9.84659 1.23548 9.72222 1.38889 9.72222H3.05556C3.20897 9.72222 3.33333 9.84659 3.33333 10C3.33333 10.1534 3.20897 10.2778 3.05556 10.2778H1.38889C1.23548 10.2778 1.11111 10.1534 1.11111 10Z" fill="white"/>
<path d="M1.11111 12.2222C1.11111 12.0688 1.23548 11.9444 1.38889 11.9444H3.05556C3.20897 11.9444 3.33333 12.0688 3.33333 12.2222C3.33333 12.3756 3.20897 12.5 3.05556 12.5H1.38889C1.23548 12.5 1.11111 12.3756 1.11111 12.2222Z" fill="white"/>
<path d="M1.11111 14.4444C1.11111 14.291 1.23548 14.1667 1.38889 14.1667H3.05556C3.20897 14.1667 3.33333 14.291 3.33333 14.4444C3.33333 14.5979 3.20897 14.7222 3.05556 14.7222H1.38889C1.23548 14.7222 1.11111 14.5979 1.11111 14.4444Z" fill="white"/>
<path d="M16.6667 4.44444C16.6667 4.29103 16.791 4.16667 16.9444 4.16667H19.7222C19.8756 4.16667 20 4.29103 20 4.44444C20 4.59786 19.8756 4.72222 19.7222 4.72222H16.9444C16.791 4.72222 16.6667 4.59786 16.6667 4.44444Z" fill="white"/>
<path d="M16.6667 6.66667C16.6667 6.51325 16.791 6.38889 16.9444 6.38889H19.7222C19.8756 6.38889 20 6.51325 20 6.66667C20 6.82008 19.8756 6.94444 19.7222 6.94444H16.9444C16.791 6.94444 16.6667 6.82008 16.6667 6.66667Z" fill="white"/>
<path d="M16.6667 8.88889C16.6667 8.73548 16.791 8.61111 16.9444 8.61111H19.7222C19.8756 8.61111 20 8.73548 20 8.88889C20 9.0423 19.8756 9.16667 19.7222 9.16667H16.9444C16.791 9.16667 16.6667 9.0423 16.6667 8.88889Z" fill="white"/>
<path d="M16.6667 11.1111C16.6667 10.9577 16.791 10.8333 16.9444 10.8333H19.7222C19.8756 10.8333 20 10.9577 20 11.1111C20 11.2645 19.8756 11.3889 19.7222 11.3889H16.9444C16.791 11.3889 16.6667 11.2645 16.6667 11.1111Z" fill="white"/>
<path d="M16.6667 13.3333C16.6667 13.1799 16.791 13.0556 16.9444 13.0556H19.7222C19.8756 13.0556 20 13.1799 20 13.3333C20 13.4867 19.8756 13.6111 19.7222 13.6111H16.9444C16.791 13.6111 16.6667 13.4867 16.6667 13.3333Z" fill="white"/>
<path d="M16.6667 15.5556C16.6667 15.4021 16.791 15.2778 16.9444 15.2778H19.7222C19.8756 15.2778 20 15.4021 20 15.5556C20 15.709 19.8756 15.8333 19.7222 15.8333H16.9444C16.791 15.8333 16.6667 15.709 16.6667 15.5556Z" fill="white"/>
<path d="M16.6667 5.55556C16.6667 5.40214 16.791 5.27778 16.9444 5.27778H18.6111C18.7645 5.27778 18.8889 5.40214 18.8889 5.55556C18.8889 5.70897 18.7645 5.83333 18.6111 5.83333H16.9444C16.791 5.83333 16.6667 5.70897 16.6667 5.55556Z" fill="white"/>
<path d="M16.6667 7.77778C16.6667 7.62437 16.791 7.5 16.9444 7.5H18.6111C18.7645 7.5 18.8889 7.62437 18.8889 7.77778C18.8889 7.93119 18.7645 8.05556 18.6111 8.05556H16.9444C16.791 8.05556 16.6667 7.93119 16.6667 7.77778Z" fill="white"/>
<path d="M16.6667 10C16.6667 9.84659 16.791 9.72222 16.9444 9.72222H18.6111C18.7645 9.72222 18.8889 9.84659 18.8889 10C18.8889 10.1534 18.7645 10.2778 18.6111 10.2778H16.9444C16.791 10.2778 16.6667 10.1534 16.6667 10Z" fill="white"/>
<path d="M16.6667 12.2222C16.6667 12.0688 16.791 11.9444 16.9444 11.9444H18.6111C18.7645 11.9444 18.8889 12.0688 18.8889 12.2222C18.8889 12.3756 18.7645 12.5 18.6111 12.5H16.9444C16.791 12.5 16.6667 12.3756 16.6667 12.2222Z" fill="white"/>
<path d="M16.6667 14.4444C16.6667 14.291 16.791 14.1667 16.9444 14.1667H18.6111C18.7645 14.1667 18.8889 14.291 18.8889 14.4444C18.8889 14.5979 18.7645 14.7222 18.6111 14.7222H16.9444C16.791 14.7222 16.6667 14.5979 16.6667 14.4444Z" fill="white"/>
<path d="M15.8333 0C15.9867 6.70587e-09 16.1111 0.124365 16.1111 0.277778V3.05556C16.1111 3.20897 15.9867 3.33333 15.8333 3.33333C15.6799 3.33333 15.5556 3.20897 15.5556 3.05556V0.277778C15.5556 0.124365 15.6799 -6.70587e-09 15.8333 0Z" fill="white"/>
<path d="M13.6111 0C13.7645 6.70587e-09 13.8889 0.124365 13.8889 0.277778V3.05556C13.8889 3.20897 13.7645 3.33333 13.6111 3.33333C13.4577 3.33333 13.3333 3.20897 13.3333 3.05556V0.277778C13.3333 0.124365 13.4577 -6.70587e-09 13.6111 0Z" fill="white"/>
<path d="M11.3889 0C11.5423 6.70587e-09 11.6667 0.124365 11.6667 0.277778V3.05556C11.6667 3.20897 11.5423 3.33333 11.3889 3.33333C11.2355 3.33333 11.1111 3.20897 11.1111 3.05556V0.277778C11.1111 0.124365 11.2355 -6.70587e-09 11.3889 0Z" fill="white"/>
<path d="M9.16667 0C9.32008 6.70587e-09 9.44444 0.124365 9.44444 0.277778V3.05556C9.44444 3.20897 9.32008 3.33333 9.16667 3.33333C9.01325 3.33333 8.88889 3.20897 8.88889 3.05556V0.277778C8.88889 0.124365 9.01325 -6.70587e-09 9.16667 0Z" fill="white"/>
<path d="M6.94444 0C7.09786 6.70587e-09 7.22222 0.124365 7.22222 0.277778V3.05556C7.22222 3.20897 7.09786 3.33333 6.94444 3.33333C6.79103 3.33333 6.66667 3.20897 6.66667 3.05556V0.277778C6.66667 0.124365 6.79103 -6.70587e-09 6.94444 0Z" fill="white"/>
<path d="M4.72222 0C4.87563 6.70587e-09 5 0.124365 5 0.277778V3.05556C5 3.20897 4.87563 3.33333 4.72222 3.33333C4.56881 3.33333 4.44444 3.20897 4.44444 3.05556L4.44444 0.277778C4.44444 0.124365 4.56881 -6.70587e-09 4.72222 0Z" fill="white"/>
<path d="M14.7222 1.11111C14.8756 1.11111 15 1.23548 15 1.38889V3.05556C15 3.20897 14.8756 3.33333 14.7222 3.33333C14.5688 3.33333 14.4444 3.20897 14.4444 3.05556V1.38889C14.4444 1.23548 14.5688 1.11111 14.7222 1.11111Z" fill="white"/>
<path d="M12.5 1.11111C12.6534 1.11111 12.7778 1.23548 12.7778 1.38889V3.05556C12.7778 3.20897 12.6534 3.33333 12.5 3.33333C12.3466 3.33333 12.2222 3.20897 12.2222 3.05556V1.38889C12.2222 1.23548 12.3466 1.11111 12.5 1.11111Z" fill="white"/>
<path d="M10.2778 1.11111C10.4312 1.11111 10.5556 1.23548 10.5556 1.38889V3.05556C10.5556 3.20897 10.4312 3.33333 10.2778 3.33333C10.1244 3.33333 10 3.20897 10 3.05556V1.38889C10 1.23548 10.1244 1.11111 10.2778 1.11111Z" fill="white"/>
<path d="M8.05556 1.11111C8.20897 1.11111 8.33333 1.23548 8.33333 1.38889V3.05556C8.33333 3.20897 8.20897 3.33333 8.05556 3.33333C7.90214 3.33333 7.77778 3.20897 7.77778 3.05556V1.38889C7.77778 1.23548 7.90214 1.11111 8.05556 1.11111Z" fill="white"/>
<path d="M5.83333 1.11111C5.98675 1.11111 6.11111 1.23548 6.11111 1.38889V3.05556C6.11111 3.20897 5.98675 3.33333 5.83333 3.33333C5.67992 3.33333 5.55556 3.20897 5.55556 3.05556V1.38889C5.55556 1.23548 5.67992 1.11111 5.83333 1.11111Z" fill="white"/>
<path d="M4.72222 20C4.56881 20 4.44444 19.8756 4.44444 19.7222L4.44445 16.9444C4.44445 16.791 4.56881 16.6667 4.72222 16.6667C4.87564 16.6667 5 16.791 5 16.9444L5 19.7222C5 19.8756 4.87563 20 4.72222 20Z" fill="white"/>
<path d="M6.94444 20C6.79103 20 6.66667 19.8756 6.66667 19.7222L6.66667 16.9444C6.66667 16.791 6.79103 16.6667 6.94445 16.6667C7.09786 16.6667 7.22222 16.791 7.22222 16.9444L7.22222 19.7222C7.22222 19.8756 7.09786 20 6.94444 20Z" fill="white"/>
<path d="M9.16667 20C9.01325 20 8.88889 19.8756 8.88889 19.7222V16.9444C8.88889 16.791 9.01325 16.6667 9.16667 16.6667C9.32008 16.6667 9.44444 16.791 9.44444 16.9444V19.7222C9.44444 19.8756 9.32008 20 9.16667 20Z" fill="white"/>
<path d="M11.3889 20C11.2355 20 11.1111 19.8756 11.1111 19.7222V16.9444C11.1111 16.791 11.2355 16.6667 11.3889 16.6667C11.5423 16.6667 11.6667 16.791 11.6667 16.9444V19.7222C11.6667 19.8756 11.5423 20 11.3889 20Z" fill="white"/>
<path d="M13.6111 20C13.4577 20 13.3333 19.8756 13.3333 19.7222V16.9444C13.3333 16.791 13.4577 16.6667 13.6111 16.6667C13.7645 16.6667 13.8889 16.791 13.8889 16.9444V19.7222C13.8889 19.8756 13.7645 20 13.6111 20Z" fill="white"/>
<path d="M15.8333 20C15.6799 20 15.5556 19.8756 15.5556 19.7222V16.9444C15.5556 16.791 15.6799 16.6667 15.8333 16.6667C15.9867 16.6667 16.1111 16.791 16.1111 16.9444V19.7222C16.1111 19.8756 15.9867 20 15.8333 20Z" fill="white"/>
<path d="M5.83333 18.8889C5.67992 18.8889 5.55556 18.7645 5.55556 18.6111V16.9444C5.55556 16.791 5.67992 16.6667 5.83333 16.6667C5.98675 16.6667 6.11111 16.791 6.11111 16.9444V18.6111C6.11111 18.7645 5.98675 18.8889 5.83333 18.8889Z" fill="white"/>
<path d="M8.05556 18.8889C7.90214 18.8889 7.77778 18.7645 7.77778 18.6111V16.9444C7.77778 16.791 7.90214 16.6667 8.05556 16.6667C8.20897 16.6667 8.33333 16.791 8.33333 16.9444V18.6111C8.33333 18.7645 8.20897 18.8889 8.05556 18.8889Z" fill="white"/>
<path d="M10.2778 18.8889C10.1244 18.8889 10 18.7645 10 18.6111V16.9444C10 16.791 10.1244 16.6667 10.2778 16.6667C10.4312 16.6667 10.5556 16.791 10.5556 16.9444V18.6111C10.5556 18.7645 10.4312 18.8889 10.2778 18.8889Z" fill="white"/>
<path d="M12.5 18.8889C12.3466 18.8889 12.2222 18.7645 12.2222 18.6111V16.9444C12.2222 16.791 12.3466 16.6667 12.5 16.6667C12.6534 16.6667 12.7778 16.791 12.7778 16.9444V18.6111C12.7778 18.7645 12.6534 18.8889 12.5 18.8889Z" fill="white"/>
<path d="M14.7222 18.8889C14.5688 18.8889 14.4444 18.7645 14.4444 18.6111V16.9444C14.4444 16.791 14.5688 16.6667 14.7222 16.6667C14.8756 16.6667 15 16.791 15 16.9444V18.6111C15 18.7645 14.8756 18.8889 14.7222 18.8889Z" fill="white"/>
<path d="M17.7778 4.44444L19.2778 4.44444L19.2778 4.44444L17.7778 4.44444ZM15.5556 17.7778L15.5556 19.2778L15.5556 19.2778L15.5556 17.7778ZM2.22222 15.5556L0.722222 15.5556L0.722222 15.5556L2.22222 15.5556ZM4.44444 2.22222L4.44444 0.722222L4.44444 0.722222L4.44444 2.22222ZM5.55556 3.33333V1.83333H5.51611L5.47672 1.83541L5.55556 3.33333ZM5.32878 3.34527L5.24994 1.84734L5.21364 1.84925L5.17748 1.85292L5.32878 3.34527ZM3.34527 14.6712L1.84734 14.7501L1.84925 14.7864L1.85292 14.8225L3.34527 14.6712ZM5.32878 16.6547L5.17748 18.1471L5.21364 18.1507L5.24994 18.1527L5.32878 16.6547ZM5.55556 16.6667L5.47672 18.1646L5.51611 18.1667H5.55556V16.6667ZM14.4444 16.6667V18.1667H14.4839L14.5233 18.1646L14.4444 16.6667ZM14.6712 16.6547L14.7501 18.1527L14.7864 18.1507L14.8225 18.1471L14.6712 16.6547ZM16.6547 14.6712L18.1471 14.8225L18.1507 14.7864L18.1527 14.7501L16.6547 14.6712ZM16.6667 5.55556L18.1667 5.55556V5.55556L16.6667 5.55556ZM14.6712 3.34527L14.8225 1.85292L14.7864 1.84925L14.7501 1.84734L14.6712 3.34527ZM14.4444 3.33333L14.5233 1.83541L14.4839 1.83333H14.4444V3.33333ZM14.4444 4.44444L14.5158 2.94614L14.4801 2.94444H14.4444V4.44444ZM14.5584 4.44987L14.7103 2.95759L14.6701 2.95349L14.6297 2.95157L14.5584 4.44987ZM15.5556 5.55556L17.0556 5.55556L17.0556 5.55556L15.5556 5.55556ZM15.5556 14.4444L17.0556 14.4444V14.4444H15.5556ZM14.4444 15.5556L14.4444 17.0556L14.4444 17.0556L14.4444 15.5556ZM5.55556 15.5556L5.55556 17.0556H5.55556V15.5556ZM4.44444 14.4444L2.94444 14.4444L2.94444 14.4444L4.44444 14.4444ZM4.44444 5.55556L2.94614 5.48421L2.94444 5.51986V5.55556H4.44444ZM4.44987 5.44162L2.95759 5.28968L2.95349 5.32989L2.95157 5.37028L4.44987 5.44162ZM5.55556 4.44444L5.55556 2.94444L5.55556 2.94444L5.55556 4.44444ZM15.8333 0L15.8333 -1.5L15.8333 0ZM16.1111 0.277778L14.6111 0.277778V0.277778H16.1111ZM16.1111 3.05556L17.6111 3.05556V3.05556H16.1111ZM15.8333 3.33333L15.8333 1.83333L15.8333 3.33333ZM15.5556 3.05556L17.0556 3.05556V3.05556H15.5556ZM15.5556 0.277778L14.0556 0.277778V0.277778H15.5556ZM13.6111 0L13.6111 -1.5L13.6111 0ZM13.8889 0.277778L12.3889 0.277778V0.277778H13.8889ZM13.8889 3.05556L15.3889 3.05556V3.05556H13.8889ZM13.6111 3.33333L13.6111 1.83333L13.6111 3.33333ZM13.3333 3.05556L14.8333 3.05556V3.05556H13.3333ZM13.3333 0.277778L11.8333 0.277778V0.277778H13.3333ZM11.3889 0L11.3889 -1.5L11.3889 0ZM11.6667 0.277778L10.1667 0.277778V0.277778H11.6667ZM11.6667 3.05556L13.1667 3.05556V3.05556H11.6667ZM11.3889 3.33333L11.3889 1.83333L11.3889 3.33333ZM11.1111 3.05556L12.6111 3.05556V3.05556H11.1111ZM11.1111 0.277778L9.61111 0.277778V0.277778H11.1111ZM9.16667 0L9.16667 -1.5L9.16667 0ZM9.44444 0.277778L7.94444 0.277778V0.277778H9.44444ZM9.44444 3.05556L10.9444 3.05556V3.05556H9.44444ZM9.16667 3.33333L9.16667 1.83333L9.16667 3.33333ZM8.88889 3.05556L10.3889 3.05556V3.05556H8.88889ZM8.88889 0.277778L7.38889 0.277778V0.277778H8.88889ZM6.94444 0L6.94444 -1.5L6.94444 0ZM7.22222 0.277778L5.72222 0.277778V0.277778H7.22222ZM7.22222 3.05556L8.72222 3.05556V3.05556H7.22222ZM6.94444 3.33333L6.94444 1.83333L6.94444 3.33333ZM6.66667 3.05556L8.16667 3.05556V3.05556H6.66667ZM6.66667 0.277778L5.16667 0.277778V0.277778H6.66667ZM4.72222 0L4.72222 -1.5L4.72222 0ZM5 0.277778L3.5 0.277778V0.277778H5ZM5 3.05556L6.5 3.05556V3.05556H5ZM4.72222 3.33333L4.72222 1.83333L4.72222 3.33333ZM4.44444 3.05556L2.94444 3.05556L2.94444 3.05556L4.44444 3.05556ZM4.44444 0.277778L5.94444 0.277778L5.94444 0.277778L4.44444 0.277778ZM14.7222 1.11111L14.7222 -0.388889L14.7222 1.11111ZM15 1.38889L13.5 1.38889V1.38889H15ZM15 3.05556L16.5 3.05556V3.05556H15ZM14.7222 3.33333L14.7222 1.83333L14.7222 3.33333ZM14.4444 3.05556L15.9444 3.05556V3.05556H14.4444ZM14.4444 1.38889L12.9444 1.38889V1.38889H14.4444ZM12.5 1.11111L12.5 -0.388889L12.5 1.11111ZM12.7778 1.38889L11.2778 1.38889V1.38889H12.7778ZM12.7778 3.05556L14.2778 3.05556V3.05556H12.7778ZM12.5 3.33333L12.5 1.83333L12.5 3.33333ZM12.2222 3.05556L13.7222 3.05556V3.05556H12.2222ZM12.2222 1.38889L10.7222 1.38889V1.38889H12.2222ZM10.2778 1.11111L10.2778 -0.388889L10.2778 1.11111ZM10.5556 1.38889L9.05556 1.38889V1.38889H10.5556ZM10.5556 3.05556L12.0556 3.05556V3.05556H10.5556ZM10.2778 3.33333L10.2778 1.83333L10.2778 3.33333ZM10 3.05556L11.5 3.05556V3.05556H10ZM10 1.38889L8.5 1.38889V1.38889H10ZM8.05556 1.11111L8.05556 -0.388889L8.05556 1.11111ZM8.33333 1.38889L6.83333 1.38889V1.38889H8.33333ZM8.33333 3.05556L9.83333 3.05556V3.05556H8.33333ZM8.05556 3.33333L8.05556 1.83333L8.05556 3.33333ZM7.77778 3.05556L9.27778 3.05556V3.05556H7.77778ZM7.77778 1.38889L6.27778 1.38889V1.38889H7.77778ZM5.83333 1.11111L5.83333 -0.388889L5.83333 1.11111ZM6.11111 1.38889L4.61111 1.38889V1.38889H6.11111ZM6.11111 3.05556L7.61111 3.05556V3.05556H6.11111ZM5.83333 3.33333L5.83333 1.83333L5.83333 3.33333ZM5.55556 3.05556L7.05556 3.05556V3.05556H5.55556ZM5.55556 1.38889L4.05556 1.38889V1.38889H5.55556ZM4.72222 20L4.72222 21.5L4.72222 20ZM4.44444 19.7222L2.94444 19.7222L2.94444 19.7222L4.44444 19.7222ZM4.44445 16.9444L5.94445 16.9444L5.94445 16.9444L4.44445 16.9444ZM4.72222 16.6667L4.72222 18.1667L4.72222 16.6667ZM5 16.9444L6.5 16.9444L6.5 16.9444L5 16.9444ZM5 19.7222L3.5 19.7222L3.5 19.7222L5 19.7222ZM6.94444 20L6.94444 21.5L6.94444 20ZM6.66667 19.7222L5.16667 19.7222L5.16667 19.7222L6.66667 19.7222ZM6.66667 16.9444L8.16667 16.9444L8.16667 16.9444L6.66667 16.9444ZM6.94445 16.6667L6.94445 18.1667L6.94445 16.6667ZM7.22222 16.9444L8.72222 16.9444L8.72222 16.9444L7.22222 16.9444ZM7.22222 19.7222L5.72222 19.7222L5.72222 19.7222L7.22222 19.7222ZM9.16667 20L9.16667 21.5L9.16667 20ZM8.88889 19.7222L10.3889 19.7222V19.7222H8.88889ZM8.88889 16.9444L7.38889 16.9444V16.9444H8.88889ZM9.16667 16.6667L9.16667 18.1667L9.16667 16.6667ZM9.44444 16.9444L7.94444 16.9444V16.9444H9.44444ZM9.44444 19.7222L10.9444 19.7222V19.7222H9.44444ZM11.3889 20L11.3889 21.5L11.3889 20ZM11.1111 19.7222L12.6111 19.7222V19.7222H11.1111ZM11.1111 16.9444L9.61111 16.9444V16.9444H11.1111ZM11.3889 16.6667L11.3889 18.1667L11.3889 16.6667ZM11.6667 16.9444L10.1667 16.9444V16.9444H11.6667ZM11.6667 19.7222L13.1667 19.7222V19.7222H11.6667ZM13.6111 20L13.6111 21.5L13.6111 20ZM13.3333 19.7222L14.8333 19.7222V19.7222H13.3333ZM13.3333 16.9444L11.8333 16.9444V16.9444H13.3333ZM13.6111 16.6667L13.6111 18.1667L13.6111 16.6667ZM13.8889 16.9444L12.3889 16.9444V16.9444H13.8889ZM13.8889 19.7222L15.3889 19.7222V19.7222H13.8889ZM15.8333 20L15.8333 21.5L15.8333 20ZM15.5556 19.7222L17.0556 19.7222V19.7222H15.5556ZM15.5556 16.9444L14.0556 16.9444V16.9444H15.5556ZM15.8333 16.6667L15.8333 18.1667L15.8333 16.6667ZM16.1111 16.9444L14.6111 16.9444V16.9444H16.1111ZM16.1111 19.7222L17.6111 19.7222V19.7222H16.1111ZM5.83333 18.8889L5.83333 20.3889L5.83333 18.8889ZM5.55556 18.6111L7.05556 18.6111V18.6111H5.55556ZM5.55556 16.9444L4.05556 16.9444V16.9444H5.55556ZM5.83333 16.6667L5.83333 18.1667L5.83333 16.6667ZM6.11111 16.9444L4.61111 16.9444V16.9444H6.11111ZM6.11111 18.6111L7.61111 18.6111V18.6111H6.11111ZM8.05556 18.8889L8.05556 20.3889L8.05556 18.8889ZM7.77778 18.6111L9.27778 18.6111V18.6111H7.77778ZM7.77778 16.9444L6.27778 16.9444V16.9444H7.77778ZM8.05556 16.6667L8.05556 18.1667L8.05556 16.6667ZM8.33333 16.9444L6.83333 16.9444V16.9444H8.33333ZM8.33333 18.6111L9.83333 18.6111V18.6111H8.33333ZM10.2778 18.8889L10.2778 20.3889L10.2778 18.8889ZM10 18.6111L11.5 18.6111V18.6111H10ZM10 16.9444L8.5 16.9444V16.9444H10ZM10.2778 16.6667L10.2778 18.1667L10.2778 16.6667ZM10.5556 16.9444L9.05556 16.9444V16.9444H10.5556ZM10.5556 18.6111L12.0556 18.6111V18.6111H10.5556ZM12.5 18.8889L12.5 20.3889L12.5 18.8889ZM12.2222 18.6111L13.7222 18.6111V18.6111H12.2222ZM12.2222 16.9444L10.7222 16.9444V16.9444H12.2222ZM12.5 16.6667L12.5 18.1667L12.5 16.6667ZM12.7778 16.9444L11.2778 16.9444V16.9444H12.7778ZM12.7778 18.6111L14.2778 18.6111V18.6111H12.7778ZM14.7222 18.8889L14.7222 20.3889L14.7222 18.8889ZM14.4444 18.6111L15.9444 18.6111V18.6111H14.4444ZM14.4444 16.9444L12.9444 16.9444V16.9444H14.4444ZM14.7222 16.6667L14.7222 18.1667L14.7222 16.6667ZM15 16.9444L13.5 16.9444V16.9444H15ZM15 18.6111L16.5 18.6111V18.6111H15ZM15.5556 2.22222V3.72222C15.9544 3.72222 16.2778 4.04557 16.2778 4.44444L17.7778 4.44444L19.2778 4.44444C19.2778 2.38872 17.6113 0.722222 15.5556 0.722222V2.22222ZM17.7778 4.44444H16.2778V15.5556H17.7778H19.2778V4.44444H17.7778ZM17.7778 15.5556H16.2778C16.2778 15.9544 15.9544 16.2778 15.5556 16.2778L15.5556 17.7778L15.5556 19.2778C17.6113 19.2778 19.2778 17.6113 19.2778 15.5556H17.7778ZM15.5556 17.7778V16.2778H4.44444V17.7778V19.2778H15.5556V17.7778ZM4.44444 17.7778V16.2778C4.04557 16.2778 3.72222 15.9544 3.72222 15.5556L2.22222 15.5556L0.722222 15.5556C0.722222 17.6113 2.38872 19.2778 4.44444 19.2778V17.7778ZM2.22222 15.5556H3.72222V4.44444H2.22222H0.722222V15.5556H2.22222ZM2.22222 4.44444H3.72222C3.72222 4.04557 4.04557 3.72222 4.44444 3.72222L4.44444 2.22222L4.44444 0.722222C2.38872 0.722222 0.722222 2.38872 0.722222 4.44444H2.22222ZM4.44444 2.22222V3.72222H15.5556V2.22222V0.722222H4.44444V2.22222ZM5.55556 3.33333L5.47672 1.83541L5.24994 1.84734L5.32878 3.34527L5.40761 4.8432L5.63439 4.83126L5.55556 3.33333ZM5.32878 3.34527L5.17748 1.85292C3.29909 2.04336 1.83333 3.6267 1.83333 5.55556L3.33333 5.55556L4.83333 5.55556C4.83333 5.18297 5.11696 4.87443 5.48008 4.83762L5.32878 3.34527ZM3.33333 5.55556H1.83333V14.4444H3.33333H4.83333V5.55556H3.33333ZM3.33333 14.4444L1.83541 14.5233L1.84734 14.7501L3.34527 14.6712L4.8432 14.5924L4.83126 14.3656L3.33333 14.4444ZM3.34527 14.6712L1.85292 14.8225C2.03084 16.5774 3.42256 17.9692 5.17748 18.1471L5.32878 16.6547L5.48008 15.1624C5.14266 15.1282 4.87183 14.8573 4.83762 14.5199L3.34527 14.6712ZM5.32878 16.6547L5.24994 18.1527L5.47672 18.1646L5.55556 16.6667L5.63439 15.1687L5.40761 15.1568L5.32878 16.6547ZM5.55556 16.6667V18.1667H14.4444V16.6667V15.1667H5.55556V16.6667ZM14.4444 16.6667L14.5233 18.1646L14.7501 18.1527L14.6712 16.6547L14.5924 15.1568L14.3656 15.1687L14.4444 16.6667ZM14.6712 16.6547L14.8225 18.1471C16.5774 17.9692 17.9692 16.5774 18.1471 14.8225L16.6547 14.6712L15.1624 14.5199C15.1282 14.8573 14.8573 15.1282 14.5199 15.1624L14.6712 16.6547ZM16.6547 14.6712L18.1527 14.7501L18.1646 14.5233L16.6667 14.4444L15.1687 14.3656L15.1568 14.5924L16.6547 14.6712ZM16.6667 14.4444H18.1667V5.55556H16.6667H15.1667V14.4444H16.6667ZM16.6667 5.55556L18.1667 5.55556C18.1667 3.6267 16.7009 2.04336 14.8225 1.85292L14.6712 3.34527L14.5199 4.83762C14.883 4.87443 15.1667 5.18297 15.1667 5.55556L16.6667 5.55556ZM14.6712 3.34527L14.7501 1.84734L14.5233 1.83541L14.4444 3.33333L14.3656 4.83126L14.5924 4.8432L14.6712 3.34527ZM14.4444 3.33333V1.83333H5.55556V3.33333V4.83333H14.4444V3.33333ZM14.4444 4.44444L14.3731 5.94275L14.487 5.94817L14.5584 4.44987L14.6297 2.95157L14.5158 2.94614L14.4444 4.44444ZM14.5584 4.44987L14.4064 5.94215C14.2081 5.92196 14.0556 5.75716 14.0556 5.55556L15.5556 5.55556L17.0556 5.55556C17.0556 4.20356 16.0289 3.09185 14.7103 2.95759L14.5584 4.44987ZM15.5556 5.55556H14.0556V14.4444H15.5556H17.0556V5.55556H15.5556ZM15.5556 14.4444L14.0556 14.4444C14.0556 14.2297 14.2297 14.0556 14.4444 14.0556L14.4444 15.5556L14.4444 17.0556C15.8865 17.0556 17.0556 15.8865 17.0556 14.4444L15.5556 14.4444ZM14.4444 15.5556V14.0556H5.55556V15.5556V17.0556H14.4444V15.5556ZM5.55556 15.5556L5.55556 14.0556C5.77033 14.0556 5.94444 14.2297 5.94444 14.4444L4.44444 14.4444L2.94444 14.4444C2.94444 15.8865 4.11348 17.0556 5.55556 17.0556L5.55556 15.5556ZM4.44444 14.4444H5.94444V5.55556H4.44444H2.94444V14.4444H4.44444ZM4.44444 5.55556L5.94275 5.6269L5.94817 5.51297L4.44987 5.44162L2.95157 5.37028L2.94614 5.48421L4.44444 5.55556ZM4.44987 5.44162L5.94215 5.59357C5.92196 5.79187 5.75716 5.94444 5.55556 5.94444L5.55556 4.44444L5.55556 2.94444C4.20356 2.94444 3.09185 3.97109 2.95759 5.28968L4.44987 5.44162ZM5.55556 4.44444V5.94444H14.4444V4.44444V2.94444H5.55556V4.44444ZM0.277778 4.16667V5.66667H3.05556V4.16667V2.66667H0.277778V4.16667ZM3.05556 4.72222V3.22222H0.277778V4.72222V6.22222H3.05556V4.72222ZM0.277778 4.72222V3.22222C0.952793 3.22222 1.5 3.76943 1.5 4.44444H0H-1.5C-1.5 5.42628 -0.704062 6.22222 0.277778 6.22222V4.72222ZM3.33333 4.44444H1.83333C1.83333 3.76943 2.38054 3.22222 3.05556 3.22222V4.72222V6.22222C4.0374 6.22222 4.83333 5.42628 4.83333 4.44444H3.33333ZM3.05556 4.16667V5.66667C2.38054 5.66667 1.83333 5.11946 1.83333 4.44444H3.33333H4.83333C4.83333 3.46261 4.0374 2.66667 3.05556 2.66667V4.16667ZM0.277778 4.16667V2.66667C-0.704062 2.66667 -1.5 3.46261 -1.5 4.44444H0H1.5C1.5 5.11946 0.952792 5.66667 0.277778 5.66667V4.16667ZM0.277778 6.38889V7.88889H3.05556V6.38889V4.88889H0.277778V6.38889ZM3.05556 6.94444V5.44444H0.277778V6.94444V8.44444H3.05556V6.94444ZM0.277778 6.94444V5.44444C0.952793 5.44444 1.5 5.99165 1.5 6.66667H0H-1.5C-1.5 7.64851 -0.704062 8.44444 0.277778 8.44444V6.94444ZM3.33333 6.66667H1.83333C1.83333 5.99165 2.38054 5.44444 3.05556 5.44444V6.94444V8.44444C4.0374 8.44444 4.83333 7.64851 4.83333 6.66667H3.33333ZM3.05556 6.38889V7.88889C2.38054 7.88889 1.83333 7.34168 1.83333 6.66667H3.33333H4.83333C4.83333 5.68483 4.0374 4.88889 3.05556 4.88889V6.38889ZM0.277778 6.38889V4.88889C-0.704062 4.88889 -1.5 5.68483 -1.5 6.66667H0H1.5C1.5 7.34168 0.952792 7.88889 0.277778 7.88889V6.38889ZM0.277778 8.61111V10.1111H3.05556V8.61111V7.11111H0.277778V8.61111ZM3.05556 9.16667V7.66667H0.277778V9.16667V10.6667H3.05556V9.16667ZM0.277778 9.16667V7.66667C0.952793 7.66667 1.5 8.21388 1.5 8.88889H0H-1.5C-1.5 9.87073 -0.704062 10.6667 0.277778 10.6667V9.16667ZM3.33333 8.88889H1.83333C1.83333 8.21387 2.38054 7.66667 3.05556 7.66667V9.16667V10.6667C4.0374 10.6667 4.83333 9.87073 4.83333 8.88889H3.33333ZM3.05556 8.61111V10.1111C2.38054 10.1111 1.83333 9.5639 1.83333 8.88889H3.33333H4.83333C4.83333 7.90705 4.0374 7.11111 3.05556 7.11111V8.61111ZM0.277778 8.61111V7.11111C-0.704062 7.11111 -1.5 7.90705 -1.5 8.88889H0H1.5C1.5 9.5639 0.952792 10.1111 0.277778 10.1111V8.61111ZM0.277778 10.8333V12.3333H3.05556V10.8333V9.33333H0.277778V10.8333ZM3.05556 11.3889V9.88889H0.277778V11.3889V12.8889H3.05556V11.3889ZM0.277778 11.3889V9.88889C0.952793 9.88889 1.5 10.4361 1.5 11.1111H0H-1.5C-1.5 12.093 -0.704062 12.8889 0.277778 12.8889V11.3889ZM3.33333 11.1111H1.83333C1.83333 10.4361 2.38054 9.88889 3.05556 9.88889V11.3889V12.8889C4.0374 12.8889 4.83333 12.093 4.83333 11.1111H3.33333ZM3.05556 10.8333V12.3333C2.38054 12.3333 1.83333 11.7861 1.83333 11.1111H3.33333H4.83333C4.83333 10.1293 4.0374 9.33333 3.05556 9.33333V10.8333ZM0.277778 10.8333V9.33333C-0.704062 9.33333 -1.5 10.1293 -1.5 11.1111H0H1.5C1.5 11.7861 0.952792 12.3333 0.277778 12.3333V10.8333ZM0.277778 13.0556V14.5556H3.05556V13.0556V11.5556H0.277778V13.0556ZM3.05556 13.6111V12.1111H0.277778V13.6111V15.1111H3.05556V13.6111ZM0.277778 13.6111V12.1111C0.952793 12.1111 1.5 12.6583 1.5 13.3333H0H-1.5C-1.5 14.3152 -0.704062 15.1111 0.277778 15.1111V13.6111ZM3.33333 13.3333H1.83333C1.83333 12.6583 2.38054 12.1111 3.05556 12.1111V13.6111V15.1111C4.0374 15.1111 4.83333 14.3152 4.83333 13.3333H3.33333ZM3.05556 13.0556V14.5556C2.38054 14.5556 1.83333 14.0083 1.83333 13.3333H3.33333H4.83333C4.83333 12.3515 4.0374 11.5556 3.05556 11.5556V13.0556ZM0.277778 13.0556V11.5556C-0.704062 11.5556 -1.5 12.3515 -1.5 13.3333H0H1.5C1.5 14.0083 0.952792 14.5556 0.277778 14.5556V13.0556ZM0.277778 15.2778V16.7778H3.05556V15.2778V13.7778H0.277778V15.2778ZM3.05556 15.8333V14.3333H0.277778V15.8333V17.3333H3.05556V15.8333ZM0.277778 15.8333V14.3333C0.952793 14.3333 1.5 14.8805 1.5 15.5556H0H-1.5C-1.5 16.5374 -0.704062 17.3333 0.277778 17.3333V15.8333ZM3.33333 15.5556H1.83333C1.83333 14.8805 2.38054 14.3333 3.05556 14.3333V15.8333V17.3333C4.0374 17.3333 4.83333 16.5374 4.83333 15.5556H3.33333ZM3.05556 15.2778V16.7778C2.38054 16.7778 1.83333 16.2306 1.83333 15.5556H3.33333H4.83333C4.83333 14.5737 4.0374 13.7778 3.05556 13.7778V15.2778ZM0.277778 15.2778V13.7778C-0.704062 13.7778 -1.5 14.5737 -1.5 15.5556H0H1.5C1.5 16.2306 0.952792 16.7778 0.277778 16.7778V15.2778ZM1.38889 5.27778V6.77778H3.05556V5.27778V3.77778H1.38889V5.27778ZM3.05556 5.83333V4.33333H1.38889V5.83333V7.33333H3.05556V5.83333ZM1.38889 5.83333V4.33333C2.0639 4.33333 2.61111 4.88054 2.61111 5.55556H1.11111H-0.388889C-0.388889 6.5374 0.407049 7.33333 1.38889 7.33333V5.83333ZM3.33333 5.55556H1.83333C1.83333 4.88054 2.38054 4.33333 3.05556 4.33333V5.83333V7.33333C4.0374 7.33333 4.83333 6.5374 4.83333 5.55556H3.33333ZM3.05556 5.27778V6.77778C2.38054 6.77778 1.83333 6.23057 1.83333 5.55556H3.33333H4.83333C4.83333 4.57372 4.0374 3.77778 3.05556 3.77778V5.27778ZM1.38889 5.27778V3.77778C0.407049 3.77778 -0.388889 4.57372 -0.388889 5.55556H1.11111H2.61111C2.61111 6.23057 2.0639 6.77778 1.38889 6.77778V5.27778ZM1.38889 7.5V9H3.05556V7.5V6H1.38889V7.5ZM3.05556 8.05556V6.55556H1.38889V8.05556V9.55556H3.05556V8.05556ZM1.38889 8.05556V6.55556C2.0639 6.55556 2.61111 7.10276 2.61111 7.77778H1.11111H-0.388889C-0.388889 8.75962 0.407049 9.55556 1.38889 9.55556V8.05556ZM3.33333 7.77778H1.83333C1.83333 7.10276 2.38054 6.55556 3.05556 6.55556V8.05556V9.55556C4.0374 9.55556 4.83333 8.75962 4.83333 7.77778H3.33333ZM3.05556 7.5V9C2.38054 9 1.83333 8.45279 1.83333 7.77778H3.33333H4.83333C4.83333 6.79594 4.0374 6 3.05556 6V7.5ZM1.38889 7.5V6C0.407049 6 -0.388889 6.79594 -0.388889 7.77778H1.11111H2.61111C2.61111 8.45279 2.0639 9 1.38889 9V7.5ZM1.38889 9.72222V11.2222H3.05556V9.72222V8.22222H1.38889V9.72222ZM3.05556 10.2778V8.77778H1.38889V10.2778V11.7778H3.05556V10.2778ZM1.38889 10.2778V8.77778C2.0639 8.77778 2.61111 9.32499 2.61111 10H1.11111H-0.388889C-0.388889 10.9818 0.407049 11.7778 1.38889 11.7778V10.2778ZM3.33333 10H1.83333C1.83333 9.32499 2.38054 8.77778 3.05556 8.77778V10.2778V11.7778C4.0374 11.7778 4.83333 10.9818 4.83333 10H3.33333ZM3.05556 9.72222V11.2222C2.38054 11.2222 1.83333 10.675 1.83333 10H3.33333H4.83333C4.83333 9.01816 4.0374 8.22222 3.05556 8.22222V9.72222ZM1.38889 9.72222V8.22222C0.407049 8.22222 -0.388889 9.01816 -0.388889 10H1.11111H2.61111C2.61111 10.675 2.0639 11.2222 1.38889 11.2222V9.72222ZM1.38889 11.9444V13.4444H3.05556V11.9444V10.4444H1.38889V11.9444ZM3.05556 12.5V11H1.38889V12.5V14H3.05556V12.5ZM1.38889 12.5V11C2.0639 11 2.61111 11.5472 2.61111 12.2222H1.11111H-0.388889C-0.388889 13.2041 0.407049 14 1.38889 14V12.5ZM3.33333 12.2222H1.83333C1.83333 11.5472 2.38054 11 3.05556 11V12.5V14C4.0374 14 4.83333 13.2041 4.83333 12.2222H3.33333ZM3.05556 11.9444V13.4444C2.38054 13.4444 1.83333 12.8972 1.83333 12.2222H3.33333H4.83333C4.83333 11.2404 4.0374 10.4444 3.05556 10.4444V11.9444ZM1.38889 11.9444V10.4444C0.407049 10.4444 -0.388889 11.2404 -0.388889 12.2222H1.11111H2.61111C2.61111 12.8972 2.0639 13.4444 1.38889 13.4444V11.9444ZM1.38889 14.1667V15.6667H3.05556V14.1667V12.6667H1.38889V14.1667ZM3.05556 14.7222V13.2222H1.38889V14.7222V16.2222H3.05556V14.7222ZM1.38889 14.7222V13.2222C2.0639 13.2222 2.61111 13.7694 2.61111 14.4444H1.11111H-0.388889C-0.388889 15.4263 0.407049 16.2222 1.38889 16.2222V14.7222ZM3.33333 14.4444H1.83333C1.83333 13.7694 2.38054 13.2222 3.05556 13.2222V14.7222V16.2222C4.0374 16.2222 4.83333 15.4263 4.83333 14.4444H3.33333ZM3.05556 14.1667V15.6667C2.38054 15.6667 1.83333 15.1195 1.83333 14.4444H3.33333H4.83333C4.83333 13.4626 4.0374 12.6667 3.05556 12.6667V14.1667ZM1.38889 14.1667V12.6667C0.407049 12.6667 -0.388889 13.4626 -0.388889 14.4444H1.11111H2.61111C2.61111 15.1195 2.0639 15.6667 1.38889 15.6667V14.1667ZM16.9444 4.16667V5.66667H19.7222V4.16667V2.66667H16.9444V4.16667ZM19.7222 4.72222V3.22222H16.9444V4.72222V6.22222H19.7222V4.72222ZM16.9444 4.72222V3.22222C17.6195 3.22222 18.1667 3.76943 18.1667 4.44444H16.6667H15.1667C15.1667 5.42628 15.9626 6.22222 16.9444 6.22222V4.72222ZM20 4.44444H18.5C18.5 3.76943 19.0472 3.22222 19.7222 3.22222V4.72222V6.22222C20.7041 6.22222 21.5 5.42628 21.5 4.44444H20ZM19.7222 4.16667V5.66667C19.0472 5.66667 18.5 5.11946 18.5 4.44444H20H21.5C21.5 3.46261 20.7041 2.66667 19.7222 2.66667V4.16667ZM16.9444 4.16667V2.66667C15.9626 2.66667 15.1667 3.46261 15.1667 4.44444H16.6667H18.1667C18.1667 5.11946 17.6195 5.66667 16.9444 5.66667V4.16667ZM16.9444 6.38889V7.88889H19.7222V6.38889V4.88889H16.9444V6.38889ZM19.7222 6.94444V5.44444H16.9444V6.94444V8.44444H19.7222V6.94444ZM16.9444 6.94444V5.44444C17.6195 5.44444 18.1667 5.99165 18.1667 6.66667H16.6667H15.1667C15.1667 7.64851 15.9626 8.44444 16.9444 8.44444V6.94444ZM20 6.66667H18.5C18.5 5.99165 19.0472 5.44444 19.7222 5.44444V6.94444V8.44444C20.7041 8.44444 21.5 7.64851 21.5 6.66667H20ZM19.7222 6.38889V7.88889C19.0472 7.88889 18.5 7.34168 18.5 6.66667H20H21.5C21.5 5.68483 20.7041 4.88889 19.7222 4.88889V6.38889ZM16.9444 6.38889V4.88889C15.9626 4.88889 15.1667 5.68483 15.1667 6.66667H16.6667H18.1667C18.1667 7.34168 17.6195 7.88889 16.9444 7.88889V6.38889ZM16.9444 8.61111V10.1111H19.7222V8.61111V7.11111H16.9444V8.61111ZM19.7222 9.16667V7.66667H16.9444V9.16667V10.6667H19.7222V9.16667ZM16.9444 9.16667V7.66667C17.6195 7.66667 18.1667 8.21387 18.1667 8.88889H16.6667H15.1667C15.1667 9.87073 15.9626 10.6667 16.9444 10.6667V9.16667ZM20 8.88889H18.5C18.5 8.21387 19.0472 7.66667 19.7222 7.66667V9.16667V10.6667C20.7041 10.6667 21.5 9.87073 21.5 8.88889H20ZM19.7222 8.61111V10.1111C19.0472 10.1111 18.5 9.5639 18.5 8.88889H20H21.5C21.5 7.90705 20.7041 7.11111 19.7222 7.11111V8.61111ZM16.9444 8.61111V7.11111C15.9626 7.11111 15.1667 7.90705 15.1667 8.88889H16.6667H18.1667C18.1667 9.5639 17.6195 10.1111 16.9444 10.1111V8.61111ZM16.9444 10.8333V12.3333H19.7222V10.8333V9.33333H16.9444V10.8333ZM19.7222 11.3889V9.88889H16.9444V11.3889V12.8889H19.7222V11.3889ZM16.9444 11.3889V9.88889C17.6195 9.88889 18.1667 10.4361 18.1667 11.1111H16.6667H15.1667C15.1667 12.093 15.9626 12.8889 16.9444 12.8889V11.3889ZM20 11.1111H18.5C18.5 10.4361 19.0472 9.88889 19.7222 9.88889V11.3889V12.8889C20.7041 12.8889 21.5 12.093 21.5 11.1111H20ZM19.7222 10.8333V12.3333C19.0472 12.3333 18.5 11.7861 18.5 11.1111H20H21.5C21.5 10.1293 20.7041 9.33333 19.7222 9.33333V10.8333ZM16.9444 10.8333V9.33333C15.9626 9.33333 15.1667 10.1293 15.1667 11.1111H16.6667H18.1667C18.1667 11.7861 17.6195 12.3333 16.9444 12.3333V10.8333ZM16.9444 13.0556V14.5556H19.7222V13.0556V11.5556H16.9444V13.0556ZM19.7222 13.6111V12.1111H16.9444V13.6111V15.1111H19.7222V13.6111ZM16.9444 13.6111V12.1111C17.6195 12.1111 18.1667 12.6583 18.1667 13.3333H16.6667H15.1667C15.1667 14.3152 15.9626 15.1111 16.9444 15.1111V13.6111ZM20 13.3333H18.5C18.5 12.6583 19.0472 12.1111 19.7222 12.1111V13.6111V15.1111C20.7041 15.1111 21.5 14.3152 21.5 13.3333H20ZM19.7222 13.0556V14.5556C19.0472 14.5556 18.5 14.0083 18.5 13.3333H20H21.5C21.5 12.3515 20.7041 11.5556 19.7222 11.5556V13.0556ZM16.9444 13.0556V11.5556C15.9626 11.5556 15.1667 12.3515 15.1667 13.3333H16.6667H18.1667C18.1667 14.0083 17.6195 14.5556 16.9444 14.5556V13.0556ZM16.9444 15.2778V16.7778H19.7222V15.2778V13.7778H16.9444V15.2778ZM19.7222 15.8333V14.3333H16.9444V15.8333V17.3333H19.7222V15.8333ZM16.9444 15.8333V14.3333C17.6195 14.3333 18.1667 14.8805 18.1667 15.5556H16.6667H15.1667C15.1667 16.5374 15.9626 17.3333 16.9444 17.3333V15.8333ZM20 15.5556H18.5C18.5 14.8805 19.0472 14.3333 19.7222 14.3333V15.8333V17.3333C20.7041 17.3333 21.5 16.5374 21.5 15.5556H20ZM19.7222 15.2778V16.7778C19.0472 16.7778 18.5 16.2306 18.5 15.5556H20H21.5C21.5 14.5737 20.7041 13.7778 19.7222 13.7778V15.2778ZM16.9444 15.2778V13.7778C15.9626 13.7778 15.1667 14.5737 15.1667 15.5556H16.6667H18.1667C18.1667 16.2306 17.6195 16.7778 16.9444 16.7778V15.2778ZM16.9444 5.27778V6.77778H18.6111V5.27778V3.77778H16.9444V5.27778ZM18.6111 5.83333V4.33333H16.9444V5.83333V7.33333H18.6111V5.83333ZM16.9444 5.83333V4.33333C17.6195 4.33333 18.1667 4.88054 18.1667 5.55556H16.6667H15.1667C15.1667 6.5374 15.9626 7.33333 16.9444 7.33333V5.83333ZM18.8889 5.55556H17.3889C17.3889 4.88054 17.9361 4.33333 18.6111 4.33333V5.83333V7.33333C19.593 7.33333 20.3889 6.5374 20.3889 5.55556H18.8889ZM18.6111 5.27778V6.77778C17.9361 6.77778 17.3889 6.23057 17.3889 5.55556H18.8889H20.3889C20.3889 4.57372 19.593 3.77778 18.6111 3.77778V5.27778ZM16.9444 5.27778V3.77778C15.9626 3.77778 15.1667 4.57372 15.1667 5.55556H16.6667H18.1667C18.1667 6.23057 17.6195 6.77778 16.9444 6.77778V5.27778ZM16.9444 7.5V9H18.6111V7.5V6H16.9444V7.5ZM18.6111 8.05556V6.55556H16.9444V8.05556V9.55556H18.6111V8.05556ZM16.9444 8.05556V6.55556C17.6195 6.55556 18.1667 7.10276 18.1667 7.77778H16.6667H15.1667C15.1667 8.75962 15.9626 9.55556 16.9444 9.55556V8.05556ZM18.8889 7.77778H17.3889C17.3889 7.10276 17.9361 6.55556 18.6111 6.55556V8.05556V9.55556C19.593 9.55556 20.3889 8.75962 20.3889 7.77778H18.8889ZM18.6111 7.5V9C17.9361 9 17.3889 8.45279 17.3889 7.77778H18.8889H20.3889C20.3889 6.79594 19.593 6 18.6111 6V7.5ZM16.9444 7.5V6C15.9626 6 15.1667 6.79594 15.1667 7.77778H16.6667H18.1667C18.1667 8.45279 17.6195 9 16.9444 9V7.5ZM16.9444 9.72222V11.2222H18.6111V9.72222V8.22222H16.9444V9.72222ZM18.6111 10.2778V8.77778H16.9444V10.2778V11.7778H18.6111V10.2778ZM16.9444 10.2778V8.77778C17.6195 8.77778 18.1667 9.32499 18.1667 10H16.6667H15.1667C15.1667 10.9818 15.9626 11.7778 16.9444 11.7778V10.2778ZM18.8889 10H17.3889C17.3889 9.32499 17.9361 8.77778 18.6111 8.77778V10.2778V11.7778C19.593 11.7778 20.3889 10.9818 20.3889 10H18.8889ZM18.6111 9.72222V11.2222C17.9361 11.2222 17.3889 10.675 17.3889 10H18.8889H20.3889C20.3889 9.01816 19.593 8.22222 18.6111 8.22222V9.72222ZM16.9444 9.72222V8.22222C15.9626 8.22222 15.1667 9.01816 15.1667 10H16.6667H18.1667C18.1667 10.675 17.6195 11.2222 16.9444 11.2222V9.72222ZM16.9444 11.9444V13.4444H18.6111V11.9444V10.4444H16.9444V11.9444ZM18.6111 12.5V11H16.9444V12.5V14H18.6111V12.5ZM16.9444 12.5V11C17.6195 11 18.1667 11.5472 18.1667 12.2222H16.6667H15.1667C15.1667 13.2041 15.9626 14 16.9444 14V12.5ZM18.8889 12.2222H17.3889C17.3889 11.5472 17.9361 11 18.6111 11V12.5V14C19.593 14 20.3889 13.2041 20.3889 12.2222H18.8889ZM18.6111 11.9444V13.4444C17.9361 13.4444 17.3889 12.8972 17.3889 12.2222H18.8889H20.3889C20.3889 11.2404 19.593 10.4444 18.6111 10.4444V11.9444ZM16.9444 11.9444V10.4444C15.9626 10.4444 15.1667 11.2404 15.1667 12.2222H16.6667H18.1667C18.1667 12.8972 17.6195 13.4444 16.9444 13.4444V11.9444ZM16.9444 14.1667V15.6667H18.6111V14.1667V12.6667H16.9444V14.1667ZM18.6111 14.7222V13.2222H16.9444V14.7222V16.2222H18.6111V14.7222ZM16.9444 14.7222V13.2222C17.6195 13.2222 18.1667 13.7694 18.1667 14.4444H16.6667H15.1667C15.1667 15.4263 15.9626 16.2222 16.9444 16.2222V14.7222ZM18.8889 14.4444H17.3889C17.3889 13.7694 17.9361 13.2222 18.6111 13.2222V14.7222V16.2222C19.593 16.2222 20.3889 15.4263 20.3889 14.4444H18.8889ZM18.6111 14.1667V15.6667C17.9361 15.6667 17.3889 15.1195 17.3889 14.4444H18.8889H20.3889C20.3889 13.4626 19.593 12.6667 18.6111 12.6667V14.1667ZM16.9444 14.1667V12.6667C15.9626 12.6667 15.1667 13.4626 15.1667 14.4444H16.6667H18.1667C18.1667 15.1195 17.6195 15.6667 16.9444 15.6667V14.1667ZM15.8333 0L15.8333 1.5C15.1583 1.5 14.6111 0.952793 14.6111 0.277778L16.1111 0.277778L17.6111 0.277778C17.6111 -0.704062 16.8152 -1.5 15.8333 -1.5L15.8333 0ZM16.1111 0.277778H14.6111V3.05556H16.1111H17.6111V0.277778H16.1111ZM16.1111 3.05556L14.6111 3.05556C14.6111 2.38054 15.1583 1.83333 15.8333 1.83333L15.8333 3.33333L15.8333 4.83333C16.8152 4.83333 17.6111 4.0374 17.6111 3.05556L16.1111 3.05556ZM15.8333 3.33333L15.8333 1.83333C16.5083 1.83333 17.0556 2.38054 17.0556 3.05556L15.5556 3.05556L14.0556 3.05556C14.0556 4.03739 14.8515 4.83333 15.8333 4.83333L15.8333 3.33333ZM15.5556 3.05556H17.0556V0.277778H15.5556H14.0556V3.05556H15.5556ZM15.5556 0.277778L17.0556 0.277778C17.0556 0.952793 16.5083 1.5 15.8333 1.5L15.8333 0L15.8333 -1.5C14.8515 -1.5 14.0556 -0.704062 14.0556 0.277778L15.5556 0.277778ZM13.6111 0L13.6111 1.5C12.9361 1.5 12.3889 0.952793 12.3889 0.277778L13.8889 0.277778L15.3889 0.277778C15.3889 -0.704062 14.593 -1.5 13.6111 -1.5L13.6111 0ZM13.8889 0.277778H12.3889V3.05556H13.8889H15.3889V0.277778H13.8889ZM13.8889 3.05556L12.3889 3.05556C12.3889 2.38054 12.9361 1.83333 13.6111 1.83333L13.6111 3.33333L13.6111 4.83333C14.593 4.83333 15.3889 4.0374 15.3889 3.05556L13.8889 3.05556ZM13.6111 3.33333L13.6111 1.83333C14.2861 1.83333 14.8333 2.38054 14.8333 3.05556L13.3333 3.05556L11.8333 3.05556C11.8333 4.03739 12.6293 4.83333 13.6111 4.83333L13.6111 3.33333ZM13.3333 3.05556H14.8333V0.277778H13.3333H11.8333V3.05556H13.3333ZM13.3333 0.277778L14.8333 0.277778C14.8333 0.952793 14.2861 1.5 13.6111 1.5L13.6111 0L13.6111 -1.5C12.6293 -1.5 11.8333 -0.704062 11.8333 0.277778L13.3333 0.277778ZM11.3889 0L11.3889 1.5C10.7139 1.5 10.1667 0.952793 10.1667 0.277778L11.6667 0.277778L13.1667 0.277778C13.1667 -0.704062 12.3707 -1.5 11.3889 -1.5L11.3889 0ZM11.6667 0.277778H10.1667V3.05556H11.6667H13.1667V0.277778H11.6667ZM11.6667 3.05556L10.1667 3.05556C10.1667 2.38054 10.7139 1.83333 11.3889 1.83333L11.3889 3.33333L11.3889 4.83333C12.3707 4.83333 13.1667 4.0374 13.1667 3.05556L11.6667 3.05556ZM11.3889 3.33333L11.3889 1.83333C12.0639 1.83333 12.6111 2.38054 12.6111 3.05556L11.1111 3.05556L9.61111 3.05556C9.61111 4.03739 10.407 4.83333 11.3889 4.83333L11.3889 3.33333ZM11.1111 3.05556H12.6111V0.277778H11.1111H9.61111V3.05556H11.1111ZM11.1111 0.277778L12.6111 0.277778C12.6111 0.952793 12.0639 1.5 11.3889 1.5L11.3889 0L11.3889 -1.5C10.4071 -1.5 9.61111 -0.704062 9.61111 0.277778L11.1111 0.277778ZM9.16667 0L9.16667 1.5C8.49165 1.5 7.94444 0.952793 7.94444 0.277778L9.44444 0.277778L10.9444 0.277778C10.9444 -0.704062 10.1485 -1.5 9.16667 -1.5L9.16667 0ZM9.44444 0.277778H7.94444V3.05556H9.44444H10.9444V0.277778H9.44444ZM9.44444 3.05556L7.94444 3.05556C7.94444 2.38054 8.49165 1.83333 9.16667 1.83333L9.16667 3.33333L9.16667 4.83333C10.1485 4.83333 10.9444 4.0374 10.9444 3.05556L9.44444 3.05556ZM9.16667 3.33333L9.16667 1.83333C9.84168 1.83333 10.3889 2.38054 10.3889 3.05556L8.88889 3.05556L7.38889 3.05556C7.38889 4.03739 8.18483 4.83333 9.16667 4.83333L9.16667 3.33333ZM8.88889 3.05556H10.3889V0.277778H8.88889H7.38889V3.05556H8.88889ZM8.88889 0.277778L10.3889 0.277778C10.3889 0.952793 9.84168 1.5 9.16667 1.5L9.16667 0L9.16667 -1.5C8.18483 -1.5 7.38889 -0.704062 7.38889 0.277778L8.88889 0.277778ZM6.94444 0L6.94444 1.5C6.26943 1.5 5.72222 0.952793 5.72222 0.277778L7.22222 0.277778L8.72222 0.277778C8.72222 -0.704062 7.92628 -1.5 6.94444 -1.5L6.94444 0ZM7.22222 0.277778H5.72222V3.05556H7.22222H8.72222V0.277778H7.22222ZM7.22222 3.05556L5.72222 3.05556C5.72222 2.38054 6.26943 1.83333 6.94444 1.83333L6.94444 3.33333L6.94444 4.83333C7.92628 4.83333 8.72222 4.0374 8.72222 3.05556L7.22222 3.05556ZM6.94444 3.33333L6.94444 1.83333C7.61946 1.83333 8.16667 2.38054 8.16667 3.05556L6.66667 3.05556L5.16667 3.05556C5.16667 4.03739 5.9626 4.83333 6.94444 4.83333L6.94444 3.33333ZM6.66667 3.05556H8.16667V0.277778H6.66667H5.16667V3.05556H6.66667ZM6.66667 0.277778L8.16667 0.277778C8.16667 0.952793 7.61946 1.5 6.94444 1.5L6.94444 0L6.94444 -1.5C5.96261 -1.5 5.16667 -0.704062 5.16667 0.277778L6.66667 0.277778ZM4.72222 0L4.72222 1.5C4.04721 1.5 3.5 0.952793 3.5 0.277778L5 0.277778L6.5 0.277778C6.5 -0.704062 5.70406 -1.5 4.72222 -1.5L4.72222 0ZM5 0.277778H3.5V3.05556H5H6.5V0.277778H5ZM5 3.05556L3.5 3.05556C3.5 2.38054 4.04721 1.83333 4.72222 1.83333L4.72222 3.33333L4.72222 4.83333C5.70406 4.83333 6.5 4.0374 6.5 3.05556L5 3.05556ZM4.72222 3.33333L4.72222 1.83333C5.39724 1.83333 5.94444 2.38054 5.94444 3.05556L4.44444 3.05556L2.94444 3.05556C2.94444 4.0374 3.74038 4.83333 4.72222 4.83333L4.72222 3.33333ZM4.44444 3.05556L5.94444 3.05556L5.94444 0.277778L4.44444 0.277778L2.94444 0.277778L2.94444 3.05556L4.44444 3.05556ZM4.44444 0.277778L5.94444 0.277778C5.94444 0.952793 5.39724 1.5 4.72222 1.5L4.72222 0L4.72222 -1.5C3.74038 -1.5 2.94444 -0.704062 2.94444 0.277778L4.44444 0.277778ZM14.7222 1.11111L14.7222 2.61111C14.0472 2.61111 13.5 2.0639 13.5 1.38889L15 1.38889L16.5 1.38889C16.5 0.407049 15.7041 -0.388889 14.7222 -0.388889L14.7222 1.11111ZM15 1.38889H13.5V3.05556H15H16.5V1.38889H15ZM15 3.05556L13.5 3.05556C13.5 2.38054 14.0472 1.83333 14.7222 1.83333L14.7222 3.33333L14.7222 4.83333C15.7041 4.83333 16.5 4.0374 16.5 3.05556L15 3.05556ZM14.7222 3.33333L14.7222 1.83333C15.3972 1.83333 15.9444 2.38054 15.9444 3.05556L14.4444 3.05556L12.9444 3.05556C12.9444 4.0374 13.7404 4.83333 14.7222 4.83333L14.7222 3.33333ZM14.4444 3.05556H15.9444V1.38889H14.4444H12.9444V3.05556H14.4444ZM14.4444 1.38889L15.9444 1.38889C15.9444 2.0639 15.3972 2.61111 14.7222 2.61111L14.7222 1.11111L14.7222 -0.388889C13.7404 -0.388889 12.9444 0.40705 12.9444 1.38889L14.4444 1.38889ZM12.5 1.11111L12.5 2.61111C11.825 2.61111 11.2778 2.0639 11.2778 1.38889L12.7778 1.38889L14.2778 1.38889C14.2778 0.407049 13.4818 -0.388889 12.5 -0.388889L12.5 1.11111ZM12.7778 1.38889H11.2778V3.05556H12.7778H14.2778V1.38889H12.7778ZM12.7778 3.05556L11.2778 3.05556C11.2778 2.38054 11.825 1.83333 12.5 1.83333L12.5 3.33333L12.5 4.83333C13.4818 4.83333 14.2778 4.0374 14.2778 3.05556L12.7778 3.05556ZM12.5 3.33333L12.5 1.83333C13.175 1.83333 13.7222 2.38054 13.7222 3.05556L12.2222 3.05556L10.7222 3.05556C10.7222 4.0374 11.5182 4.83333 12.5 4.83333L12.5 3.33333ZM12.2222 3.05556H13.7222V1.38889H12.2222H10.7222V3.05556H12.2222ZM12.2222 1.38889L13.7222 1.38889C13.7222 2.0639 13.175 2.61111 12.5 2.61111L12.5 1.11111L12.5 -0.388889C11.5182 -0.388889 10.7222 0.40705 10.7222 1.38889L12.2222 1.38889ZM10.2778 1.11111L10.2778 2.61111C9.60276 2.61111 9.05556 2.0639 9.05556 1.38889L10.5556 1.38889L12.0556 1.38889C12.0556 0.407049 11.2596 -0.388889 10.2778 -0.388889L10.2778 1.11111ZM10.5556 1.38889H9.05556V3.05556H10.5556H12.0556V1.38889H10.5556ZM10.5556 3.05556L9.05556 3.05556C9.05556 2.38054 9.60276 1.83333 10.2778 1.83333L10.2778 3.33333L10.2778 4.83333C11.2596 4.83333 12.0556 4.0374 12.0556 3.05556L10.5556 3.05556ZM10.2778 3.33333L10.2778 1.83333C10.9528 1.83333 11.5 2.38054 11.5 3.05556L10 3.05556L8.5 3.05556C8.5 4.0374 9.29594 4.83333 10.2778 4.83333L10.2778 3.33333ZM10 3.05556H11.5V1.38889H10H8.5V3.05556H10ZM10 1.38889L11.5 1.38889C11.5 2.0639 10.9528 2.61111 10.2778 2.61111L10.2778 1.11111L10.2778 -0.388889C9.29594 -0.388889 8.5 0.40705 8.5 1.38889L10 1.38889ZM8.05556 1.11111L8.05556 2.61111C7.38054 2.61111 6.83333 2.0639 6.83333 1.38889L8.33333 1.38889L9.83333 1.38889C9.83333 0.407049 9.0374 -0.388889 8.05556 -0.388889L8.05556 1.11111ZM8.33333 1.38889H6.83333V3.05556H8.33333H9.83333V1.38889H8.33333ZM8.33333 3.05556L6.83333 3.05556C6.83333 2.38054 7.38054 1.83333 8.05556 1.83333L8.05556 3.33333L8.05556 4.83333C9.0374 4.83333 9.83333 4.0374 9.83333 3.05556L8.33333 3.05556ZM8.05556 3.33333L8.05556 1.83333C8.73057 1.83333 9.27778 2.38054 9.27778 3.05556L7.77778 3.05556L6.27778 3.05556C6.27778 4.0374 7.07372 4.83333 8.05556 4.83333L8.05556 3.33333ZM7.77778 3.05556H9.27778V1.38889H7.77778H6.27778V3.05556H7.77778ZM7.77778 1.38889L9.27778 1.38889C9.27778 2.0639 8.73057 2.61111 8.05556 2.61111L8.05556 1.11111L8.05556 -0.388889C7.07372 -0.388889 6.27778 0.40705 6.27778 1.38889L7.77778 1.38889ZM5.83333 1.11111L5.83333 2.61111C5.15832 2.61111 4.61111 2.0639 4.61111 1.38889L6.11111 1.38889L7.61111 1.38889C7.61111 0.407049 6.81517 -0.388889 5.83333 -0.388889L5.83333 1.11111ZM6.11111 1.38889H4.61111V3.05556H6.11111H7.61111V1.38889H6.11111ZM6.11111 3.05556L4.61111 3.05556C4.61111 2.38054 5.15832 1.83333 5.83333 1.83333L5.83333 3.33333L5.83333 4.83333C6.81517 4.83333 7.61111 4.0374 7.61111 3.05556L6.11111 3.05556ZM5.83333 3.33333L5.83333 1.83333C6.50835 1.83333 7.05556 2.38054 7.05556 3.05556L5.55556 3.05556L4.05556 3.05556C4.05556 4.0374 4.85149 4.83333 5.83333 4.83333L5.83333 3.33333ZM5.55556 3.05556H7.05556V1.38889H5.55556H4.05556V3.05556H5.55556ZM5.55556 1.38889L7.05556 1.38889C7.05556 2.0639 6.50835 2.61111 5.83333 2.61111L5.83333 1.11111L5.83333 -0.388889C4.85149 -0.388889 4.05556 0.40705 4.05556 1.38889L5.55556 1.38889ZM4.72222 20L4.72222 18.5C5.39724 18.5 5.94444 19.0472 5.94444 19.7222L4.44444 19.7222L2.94444 19.7222C2.94444 20.7041 3.74038 21.5 4.72222 21.5L4.72222 20ZM4.44444 19.7222L5.94444 19.7222L5.94445 16.9444L4.44445 16.9444L2.94445 16.9444L2.94444 19.7222L4.44444 19.7222ZM4.44445 16.9444L5.94445 16.9444C5.94445 17.6195 5.39724 18.1667 4.72222 18.1667L4.72222 16.6667L4.72222 15.1667C3.74038 15.1667 2.94445 15.9626 2.94445 16.9444L4.44445 16.9444ZM4.72222 16.6667L4.72222 18.1667C4.04721 18.1667 3.5 17.6195 3.5 16.9444L5 16.9444L6.5 16.9444C6.5 15.9626 5.70406 15.1667 4.72222 15.1667L4.72222 16.6667ZM5 16.9444L3.5 16.9444L3.5 19.7222L5 19.7222L6.5 19.7222L6.5 16.9444L5 16.9444ZM5 19.7222L3.5 19.7222C3.5 19.0472 4.04721 18.5 4.72222 18.5L4.72222 20L4.72222 21.5C5.70406 21.5 6.5 20.7041 6.5 19.7222L5 19.7222ZM6.94444 20L6.94444 18.5C7.61946 18.5 8.16667 19.0472 8.16667 19.7222L6.66667 19.7222L5.16667 19.7222C5.16667 20.7041 5.96261 21.5 6.94444 21.5L6.94444 20ZM6.66667 19.7222L8.16667 19.7222L8.16667 16.9444L6.66667 16.9444L5.16667 16.9444L5.16667 19.7222L6.66667 19.7222ZM6.66667 16.9444L8.16667 16.9444C8.16667 17.6195 7.61946 18.1667 6.94445 18.1667L6.94445 16.6667L6.94445 15.1667C5.96261 15.1667 5.16667 15.9626 5.16667 16.9444L6.66667 16.9444ZM6.94445 16.6667L6.94445 18.1667C6.26943 18.1667 5.72222 17.6195 5.72222 16.9444L7.22222 16.9444L8.72222 16.9444C8.72222 15.9626 7.92629 15.1667 6.94445 15.1667L6.94445 16.6667ZM7.22222 16.9444L5.72222 16.9444L5.72222 19.7222L7.22222 19.7222L8.72222 19.7222L8.72222 16.9444L7.22222 16.9444ZM7.22222 19.7222L5.72222 19.7222C5.72222 19.0472 6.26943 18.5 6.94444 18.5L6.94444 20L6.94444 21.5C7.92628 21.5 8.72222 20.7041 8.72222 19.7222L7.22222 19.7222ZM9.16667 20L9.16667 18.5C9.84168 18.5 10.3889 19.0472 10.3889 19.7222L8.88889 19.7222L7.38889 19.7222C7.38889 20.7041 8.18483 21.5 9.16667 21.5L9.16667 20ZM8.88889 19.7222H10.3889V16.9444H8.88889H7.38889V19.7222H8.88889ZM8.88889 16.9444L10.3889 16.9444C10.3889 17.6195 9.84168 18.1667 9.16667 18.1667L9.16667 16.6667L9.16667 15.1667C8.18483 15.1667 7.38889 15.9626 7.38889 16.9444L8.88889 16.9444ZM9.16667 16.6667L9.16667 18.1667C8.49165 18.1667 7.94444 17.6195 7.94444 16.9444L9.44444 16.9444L10.9444 16.9444C10.9444 15.9626 10.1485 15.1667 9.16667 15.1667L9.16667 16.6667ZM9.44444 16.9444H7.94444V19.7222H9.44444H10.9444V16.9444H9.44444ZM9.44444 19.7222L7.94444 19.7222C7.94444 19.0472 8.49165 18.5 9.16667 18.5L9.16667 20L9.16667 21.5C10.1485 21.5 10.9444 20.7041 10.9444 19.7222L9.44444 19.7222ZM11.3889 20L11.3889 18.5C12.0639 18.5 12.6111 19.0472 12.6111 19.7222L11.1111 19.7222L9.61111 19.7222C9.61111 20.7041 10.4071 21.5 11.3889 21.5L11.3889 20ZM11.1111 19.7222H12.6111V16.9444H11.1111H9.61111V19.7222H11.1111ZM11.1111 16.9444L12.6111 16.9444C12.6111 17.6195 12.0639 18.1667 11.3889 18.1667L11.3889 16.6667L11.3889 15.1667C10.4071 15.1667 9.61111 15.9626 9.61111 16.9444L11.1111 16.9444ZM11.3889 16.6667L11.3889 18.1667C10.7139 18.1667 10.1667 17.6195 10.1667 16.9444L11.6667 16.9444L13.1667 16.9444C13.1667 15.9626 12.3707 15.1667 11.3889 15.1667L11.3889 16.6667ZM11.6667 16.9444H10.1667V19.7222H11.6667H13.1667V16.9444H11.6667ZM11.6667 19.7222L10.1667 19.7222C10.1667 19.0472 10.7139 18.5 11.3889 18.5L11.3889 20L11.3889 21.5C12.3707 21.5 13.1667 20.7041 13.1667 19.7222L11.6667 19.7222ZM13.6111 20L13.6111 18.5C14.2861 18.5 14.8333 19.0472 14.8333 19.7222L13.3333 19.7222L11.8333 19.7222C11.8333 20.7041 12.6293 21.5 13.6111 21.5L13.6111 20ZM13.3333 19.7222H14.8333V16.9444H13.3333H11.8333V19.7222H13.3333ZM13.3333 16.9444L14.8333 16.9444C14.8333 17.6195 14.2861 18.1667 13.6111 18.1667L13.6111 16.6667L13.6111 15.1667C12.6293 15.1667 11.8333 15.9626 11.8333 16.9444L13.3333 16.9444ZM13.6111 16.6667L13.6111 18.1667C12.9361 18.1667 12.3889 17.6195 12.3889 16.9444L13.8889 16.9444L15.3889 16.9444C15.3889 15.9626 14.593 15.1667 13.6111 15.1667L13.6111 16.6667ZM13.8889 16.9444H12.3889V19.7222H13.8889H15.3889V16.9444H13.8889ZM13.8889 19.7222L12.3889 19.7222C12.3889 19.0472 12.9361 18.5 13.6111 18.5L13.6111 20L13.6111 21.5C14.593 21.5 15.3889 20.7041 15.3889 19.7222L13.8889 19.7222ZM15.8333 20L15.8333 18.5C16.5083 18.5 17.0556 19.0472 17.0556 19.7222L15.5556 19.7222L14.0556 19.7222C14.0556 20.7041 14.8515 21.5 15.8333 21.5L15.8333 20ZM15.5556 19.7222H17.0556V16.9444H15.5556H14.0556V19.7222H15.5556ZM15.5556 16.9444L17.0556 16.9444C17.0556 17.6195 16.5083 18.1667 15.8333 18.1667L15.8333 16.6667L15.8333 15.1667C14.8515 15.1667 14.0556 15.9626 14.0556 16.9444L15.5556 16.9444ZM15.8333 16.6667L15.8333 18.1667C15.1583 18.1667 14.6111 17.6195 14.6111 16.9444L16.1111 16.9444L17.6111 16.9444C17.6111 15.9626 16.8152 15.1667 15.8333 15.1667L15.8333 16.6667ZM16.1111 16.9444H14.6111V19.7222H16.1111H17.6111V16.9444H16.1111ZM16.1111 19.7222L14.6111 19.7222C14.6111 19.0472 15.1583 18.5 15.8333 18.5L15.8333 20L15.8333 21.5C16.8152 21.5 17.6111 20.7041 17.6111 19.7222L16.1111 19.7222ZM5.83333 18.8889L5.83333 17.3889C6.50835 17.3889 7.05556 17.9361 7.05556 18.6111L5.55556 18.6111L4.05556 18.6111C4.05556 19.593 4.85149 20.3889 5.83333 20.3889L5.83333 18.8889ZM5.55556 18.6111H7.05556V16.9444H5.55556H4.05556V18.6111H5.55556ZM5.55556 16.9444L7.05556 16.9444C7.05556 17.6195 6.50835 18.1667 5.83333 18.1667L5.83333 16.6667L5.83333 15.1667C4.8515 15.1667 4.05556 15.9626 4.05556 16.9444L5.55556 16.9444ZM5.83333 16.6667L5.83333 18.1667C5.15832 18.1667 4.61111 17.6195 4.61111 16.9444L6.11111 16.9444L7.61111 16.9444C7.61111 15.9626 6.81518 15.1667 5.83333 15.1667L5.83333 16.6667ZM6.11111 16.9444H4.61111V18.6111H6.11111H7.61111V16.9444H6.11111ZM6.11111 18.6111L4.61111 18.6111C4.61111 17.9361 5.15832 17.3889 5.83333 17.3889L5.83333 18.8889L5.83333 20.3889C6.81517 20.3889 7.61111 19.593 7.61111 18.6111L6.11111 18.6111ZM8.05556 18.8889L8.05556 17.3889C8.73057 17.3889 9.27778 17.9361 9.27778 18.6111L7.77778 18.6111L6.27778 18.6111C6.27778 19.593 7.07372 20.3889 8.05556 20.3889L8.05556 18.8889ZM7.77778 18.6111H9.27778V16.9444H7.77778H6.27778V18.6111H7.77778ZM7.77778 16.9444L9.27778 16.9444C9.27778 17.6195 8.73057 18.1667 8.05556 18.1667L8.05556 16.6667L8.05556 15.1667C7.07372 15.1667 6.27778 15.9626 6.27778 16.9444L7.77778 16.9444ZM8.05556 16.6667L8.05556 18.1667C7.38054 18.1667 6.83333 17.6195 6.83333 16.9444L8.33333 16.9444L9.83333 16.9444C9.83333 15.9626 9.0374 15.1667 8.05556 15.1667L8.05556 16.6667ZM8.33333 16.9444H6.83333V18.6111H8.33333H9.83333V16.9444H8.33333ZM8.33333 18.6111L6.83333 18.6111C6.83333 17.9361 7.38054 17.3889 8.05556 17.3889L8.05556 18.8889L8.05556 20.3889C9.0374 20.3889 9.83333 19.593 9.83333 18.6111L8.33333 18.6111ZM10.2778 18.8889L10.2778 17.3889C10.9528 17.3889 11.5 17.9361 11.5 18.6111L10 18.6111L8.5 18.6111C8.5 19.593 9.29594 20.3889 10.2778 20.3889L10.2778 18.8889ZM10 18.6111H11.5V16.9444H10H8.5V18.6111H10ZM10 16.9444L11.5 16.9444C11.5 17.6195 10.9528 18.1667 10.2778 18.1667L10.2778 16.6667L10.2778 15.1667C9.29594 15.1667 8.5 15.9626 8.5 16.9444L10 16.9444ZM10.2778 16.6667L10.2778 18.1667C9.60276 18.1667 9.05556 17.6195 9.05556 16.9444L10.5556 16.9444L12.0556 16.9444C12.0556 15.9626 11.2596 15.1667 10.2778 15.1667L10.2778 16.6667ZM10.5556 16.9444H9.05556V18.6111H10.5556H12.0556V16.9444H10.5556ZM10.5556 18.6111L9.05556 18.6111C9.05556 17.9361 9.60276 17.3889 10.2778 17.3889L10.2778 18.8889L10.2778 20.3889C11.2596 20.3889 12.0556 19.593 12.0556 18.6111L10.5556 18.6111ZM12.5 18.8889L12.5 17.3889C13.175 17.3889 13.7222 17.9361 13.7222 18.6111L12.2222 18.6111L10.7222 18.6111C10.7222 19.593 11.5182 20.3889 12.5 20.3889L12.5 18.8889ZM12.2222 18.6111H13.7222V16.9444H12.2222H10.7222V18.6111H12.2222ZM12.2222 16.9444L13.7222 16.9444C13.7222 17.6195 13.175 18.1667 12.5 18.1667L12.5 16.6667L12.5 15.1667C11.5182 15.1667 10.7222 15.9626 10.7222 16.9444L12.2222 16.9444ZM12.5 16.6667L12.5 18.1667C11.825 18.1667 11.2778 17.6195 11.2778 16.9444L12.7778 16.9444L14.2778 16.9444C14.2778 15.9626 13.4818 15.1667 12.5 15.1667L12.5 16.6667ZM12.7778 16.9444H11.2778V18.6111H12.7778H14.2778V16.9444H12.7778ZM12.7778 18.6111L11.2778 18.6111C11.2778 17.9361 11.825 17.3889 12.5 17.3889L12.5 18.8889L12.5 20.3889C13.4818 20.3889 14.2778 19.593 14.2778 18.6111L12.7778 18.6111ZM14.7222 18.8889L14.7222 17.3889C15.3972 17.3889 15.9444 17.9361 15.9444 18.6111L14.4444 18.6111L12.9444 18.6111C12.9444 19.593 13.7404 20.3889 14.7222 20.3889L14.7222 18.8889ZM14.4444 18.6111H15.9444V16.9444H14.4444H12.9444V18.6111H14.4444ZM14.4444 16.9444L15.9444 16.9444C15.9444 17.6195 15.3972 18.1667 14.7222 18.1667L14.7222 16.6667L14.7222 15.1667C13.7404 15.1667 12.9444 15.9626 12.9444 16.9444L14.4444 16.9444ZM14.7222 16.6667L14.7222 18.1667C14.0472 18.1667 13.5 17.6195 13.5 16.9444L15 16.9444L16.5 16.9444C16.5 15.9626 15.7041 15.1667 14.7222 15.1667L14.7222 16.6667ZM15 16.9444H13.5V18.6111H15H16.5V16.9444H15ZM15 18.6111L13.5 18.6111C13.5 17.9361 14.0472 17.3889 14.7222 17.3889L14.7222 18.8889L14.7222 20.3889C15.7041 20.3889 16.5 19.593 16.5 18.6111L15 18.6111Z" fill="white" mask="url(#path-1-inside-1_621_174)"/>
</svg>
