<svg width="24" height="24" viewBox="0 0 24 24" fill="none" xmlns="http://www.w3.org/2000/svg">
<path opacity="0.15" d="M2 11.9996C2 10.7722 2.99492 9.77734 4.22222 9.77734H12C13.2273 9.77734 14.2222 10.7722 14.2222 11.9996V19.7773C14.2222 21.0047 13.2273 21.9996 12 21.9996H4.22222C2.99492 21.9996 2 21.0047 2 19.7773V11.9996Z" fill="#676767"/>
<path d="M18.1107 14.2222H19.7773C21.0047 14.2222 21.9996 13.2273 21.9996 12V4.22222C21.9996 2.99492 21.0047 2 19.7773 2H11.9996C10.7722 2 9.77734 2.99492 9.77734 4.22222V5.88889" stroke="white" stroke-width="1.5" stroke-linecap="round" stroke-linejoin="round"/>
<path d="M12 9.77734H4.22222C2.99492 9.77734 2 10.7722 2 11.9996V19.7773C2 21.0047 2.99492 21.9996 4.22222 21.9996H12C13.2273 21.9996 14.2222 21.0047 14.2222 19.7773V11.9996C14.2222 10.7722 13.2273 9.77734 12 9.77734Z" stroke="white" stroke-width="1.5" stroke-linecap="round" stroke-linejoin="round"/>
<path d="M6.22266 13.5547V18.4102L10.269 15.9825L6.22266 13.5547Z" stroke="white" stroke-width="0.75" stroke-linejoin="round"/>
</svg>
