<svg width="25" height="25" viewBox="0 0 25 25" fill="none" xmlns="http://www.w3.org/2000/svg">
<path d="M11.98 8.80001L17.5715 5V18.68L11.98 14.88H6.71429C5.21523 14.88 4 14.1995 4 13.36V10.32C4 9.48054 5.21523 8.80001 6.71429 8.80001H11.98Z" stroke="white" stroke-width="1.5" stroke-linecap="round" stroke-linejoin="round"/>
<path d="M21.6445 9.56055C22.3231 9.94055 23.0017 10.7005 23.0017 11.8406C23.0017 12.9806 22.3231 13.7406 21.6445 14.1206" stroke="white" stroke-width="1.5" stroke-linecap="round" stroke-linejoin="round"/>
<path d="M10.0791 18.3897L10.0791 14.8792L7.03906 14.8792L7.03906 18.3897C7.03906 19.3891 7.37933 20.1992 7.79906 20.1992L9.31907 20.1992C9.73882 20.1992 10.0791 19.3891 10.0791 18.3897Z" fill="white" stroke="white" stroke-linecap="round" stroke-linejoin="round"/>
</svg>
