<svg width="1595" height="100%" viewBox="0 0 1595 1595" fill="none" xmlns="http://www.w3.org/2000/svg">
<g clip-path="url(#clip0_451_174)">
<g filter="url(#filter0_f_451_174)">
<path d="M629.279 935.859C531.66 990.668 492.446 1069.61 380.88 1078.98C122.602 1100.66 29.2066 624.605 209.15 438.091C317.422 325.866 440.669 311.565 594.883 334.736C745.341 357.343 811.291 394.664 919.741 501.335C959.172 540.121 1014.04 618.025 1013.81 684.415C1013.54 760.136 967.59 807.568 899.754 841.252C829.916 875.931 750.434 867.835 629.279 935.859Z" fill="#001A72"/>
</g>
<g filter="url(#filter1_f_451_174)">
<path d="M976.885 412.369C1096.31 384.514 1160.5 317.982 1281.79 337.939C1562.61 384.138 1526.28 871.252 1281.79 1005.7C1134.69 1086.59 999.564 1068.39 842.186 1005.7C688.644 944.533 629.146 891.073 544.223 759.125C513.346 711.152 477.197 621.125 496.364 556.646C518.227 483.107 580.597 448.965 662.329 433.887C746.467 418.367 828.677 446.938 976.885 412.369Z" fill="#001A72"/>
</g>
<g filter="url(#filter2_f_451_174)">
<path d="M811.209 1040.46C1012.39 1121.37 1220.15 1075.9 1275.25 938.894C1330.36 801.887 1211.95 625.227 1010.77 544.314C809.594 463.4 601.834 508.873 546.727 645.88C491.619 782.887 610.032 959.547 811.209 1040.46Z" fill="#FBC6CF"/>
</g>
<path d="M222.437 260.053L1308.17 451.482C1345.35 458.044 1375.5 493.497 1375.5 530.678V1279.73C1375.5 1316.91 1345.35 1341.73 1308.17 1335.19L222.437 1143.76C185.257 1137.2 155.105 1101.75 155.105 1064.56V315.516C155.105 278.315 185.257 253.487 222.437 260.053Z" fill="#161127" fill-opacity="0.75"/>
<path d="M223.673 261.11L1309.4 452.539C1346.58 459.102 1376.73 494.558 1376.73 531.736V1280.78C1376.73 1317.97 1346.58 1342.79 1309.4 1336.25L223.673 1144.82C186.491 1138.26 156.34 1102.8 156.34 1065.62V316.573C156.34 279.372 186.491 254.545 223.673 261.11Z" stroke="url(#paint0_linear_451_174)" stroke-width="0.823333"/>
<g filter="url(#filter3_f_451_174)">
<path fill-rule="evenodd" clip-rule="evenodd" d="M765.012 1011.25C802.35 1050.2 838.134 1073.63 866.345 1078.64V1078.63C876.611 1080.45 885.842 1079.8 893.622 1076.58C909.18 1070.28 919.965 1053.73 924.736 1028.61C929.196 1005.01 928.161 974.802 921.833 941.355C920.834 936.065 919.676 930.64 918.368 925.092C922.061 924.647 925.672 924.149 929.196 923.599C997.234 913.027 1039.45 884.124 1039.45 848.152C1039.45 830.531 1029.08 810.649 1009.47 790.703C991.428 772.489 966.017 754.429 935.835 738.654C929.809 735.49 923.579 732.4 917.159 729.39C918.23 725.201 919.201 721.061 920.07 716.977C934.591 649.071 924.322 592.195 893.31 568.766C878.168 557.329 857.424 553.649 833.467 558.267C811.479 562.499 787.106 573.616 763.042 590.411C758.196 593.787 753.343 597.398 748.495 601.231C745.245 597.523 742.001 593.94 738.771 590.485C685.254 533.138 632.669 505.26 601.762 517.823C586.515 523.984 576.249 540.199 571.891 564.763C567.951 587.316 569.09 616.393 575.211 648.967C576.446 655.547 577.884 662.286 579.512 669.166C572.045 669.976 564.825 670.98 557.889 672.176C494.52 683.05 456.766 710.244 456.766 744.859C456.766 762.896 467.346 783.425 487.259 804.061C506.03 823.547 532.376 842.397 563.386 858.527C568.492 861.19 573.78 863.799 579.241 866.347C577.498 873.119 575.978 879.807 574.692 886.385C562.142 950.374 572.515 1002.05 602.28 1024.63C610.162 1030.62 619.498 1034.57 630.078 1036.44V1036.43C640.242 1038.24 651.65 1038.07 663.784 1035.84C687.017 1031.72 712.428 1020.38 737.113 1003.07C741.14 1000.24 745.183 997.217 749.234 994.002C754.496 1000.02 759.76 1005.78 765.012 1011.25ZM766.61 979.103C782.963 964.041 799.363 946.024 815.481 925.419C843.71 927.89 870.348 928.483 894.388 927.157C895.584 932.211 896.642 937.146 897.562 941.958C910.218 1008.43 897.979 1045.98 881.28 1052.72C865.203 1059.25 828.072 1043.91 781.297 995.165C776.436 990.108 771.534 984.741 766.61 979.103ZM911.606 899.797C914.951 899.39 918.222 898.933 921.419 898.43C985.412 888.399 1014.66 863.03 1014.66 843.743C1014.66 833.838 1007.19 820.835 993.605 807.063C977.944 791.153 955.125 775.116 927.849 760.79C922.252 757.872 916.466 755.017 910.504 752.231C903.343 774.225 893.767 797.209 882.129 820.388C894.393 848.504 904.294 875.156 911.606 899.797ZM867.991 846.841C875.817 866.13 882.367 884.543 887.57 901.859C870.69 902.749 852.445 902.639 833.209 901.55C839.235 893.017 845.205 884.129 851.099 874.906C857.03 865.606 862.668 856.232 867.991 846.841ZM854.584 815.67C847.017 830.022 838.635 844.431 829.524 858.683C820.377 872.984 811.06 886.447 801.647 898.979C784.335 897.154 766.443 894.622 748.212 891.392C729.977 888.159 712.359 884.481 695.471 880.395C685.54 864.08 675.982 847.175 666.999 829.979V829.989C657.975 812.721 649.651 795.43 642.112 778.349C649.659 763.867 657.944 749.512 666.848 735.572L666.897 735.61C675.908 721.506 685.397 708.018 695.216 695.304C712.617 697.054 730.389 699.513 748.212 702.674C766.201 705.863 783.97 709.694 801.295 714.09C810.947 730.113 820.37 746.89 829.422 764.209C838.622 781.807 847.025 799.001 854.584 815.67ZM867.741 788.998C875.127 772.906 881.395 757.054 886.42 741.741C869.619 734.915 851.771 728.623 833.186 722.97C839.22 733.543 845.131 744.365 850.892 755.39C856.828 766.755 862.448 777.968 867.741 788.998ZM815.103 692.613C842.57 700.067 868.863 708.902 893.105 718.843C894.053 715.102 894.92 711.406 895.697 707.762C909.282 643.753 897.562 601.017 880.864 588.359C872.359 581.944 858.566 580.133 841.97 583.342C822.782 587.033 801.105 597.053 779.326 612.276C774.877 615.379 770.417 618.696 765.958 622.212C782.513 643.109 799.092 666.863 815.103 692.613ZM748.506 637.012C759.939 651.499 771.412 667.464 782.707 684.586C771.292 682.023 759.738 679.7 748.107 677.64C736.64 675.606 725.257 673.853 714.007 672.383C725.278 659.447 736.842 647.587 748.506 637.012ZM731.043 616.013C728.112 612.678 725.191 609.452 722.282 606.342C671.875 552.366 631.011 535.007 614.312 541.74C605.807 545.129 599.479 556.422 596.471 573.406C593.049 593.028 594.087 619.064 599.689 648.529C600.834 654.627 602.165 660.878 603.673 667.262C627.875 666.022 654.108 666.564 681.525 668.879C697.436 649.117 714.12 631.292 731.043 616.013ZM586.183 694.432C579.236 695.176 572.558 696.099 566.187 697.2C507.899 707.302 481.762 730.616 481.762 749.28C481.762 767.943 509.869 804.206 571.477 836.289C576.118 838.706 580.928 841.075 585.899 843.396C593.251 820.534 602.927 796.992 614.604 773.537C603.067 746.31 593.489 719.653 586.183 694.432ZM628.91 746.622C621.672 728.079 615.46 709.968 610.387 692.6C627.047 691.821 644.819 691.913 663.278 692.863C657.16 701.373 651.198 710.159 645.427 719.178C639.638 728.235 634.126 737.399 628.91 746.622ZM628.91 805.466C621.537 821.755 615.186 837.991 610.029 853.779C626.602 860.357 644.558 866.444 663.687 871.977C657.431 861.093 651.333 849.971 645.427 838.665C639.641 827.597 634.129 816.514 628.91 805.466ZM681.753 902.059C653.352 894.724 627.024 886.229 603.3 876.736C601.664 883.078 600.249 889.311 599.065 895.406C587.552 954.355 598.651 993.029 614.624 1005.13C618.565 1008.12 623.75 1010.29 630.078 1011.42C650.717 1015.08 683.181 1007.7 720.726 981.403C724.409 978.822 728.109 976.06 731.822 973.123C714.733 951.685 697.866 927.742 681.753 902.059ZM714.148 909.728C725.63 926.965 737.417 943.246 749.224 958.158C760.624 947.581 772.081 935.442 783.466 921.895C771.884 920.366 760.111 918.547 748.212 916.436V916.416C736.614 914.358 725.252 912.127 714.148 909.728ZM800.277 805.737C800.277 776.836 776.96 749.269 748.212 744.171C719.461 739.073 696.143 758.383 696.143 787.283C696.143 816.184 719.461 843.753 748.212 848.852C776.96 853.95 800.277 834.64 800.277 805.737Z" fill="#62B5F9" fill-opacity="0.3"/>
</g>
<path fill-rule="evenodd" clip-rule="evenodd" d="M765.012 1011.25C802.35 1050.2 838.134 1073.63 866.345 1078.64V1078.63C876.611 1080.45 885.842 1079.8 893.622 1076.58C909.18 1070.28 919.965 1053.73 924.736 1028.61C929.196 1005.01 928.161 974.802 921.833 941.355C920.834 936.065 919.676 930.64 918.368 925.092C922.061 924.647 925.672 924.149 929.196 923.599C997.234 913.027 1039.45 884.124 1039.45 848.152C1039.45 830.531 1029.08 810.649 1009.47 790.703C991.428 772.489 966.017 754.429 935.835 738.654C929.809 735.49 923.579 732.4 917.159 729.39C918.23 725.201 919.201 721.061 920.07 716.977C934.591 649.071 924.322 592.195 893.31 568.766C878.168 557.329 857.424 553.649 833.467 558.267C811.479 562.499 787.106 573.616 763.042 590.411C758.196 593.787 753.343 597.398 748.495 601.231C745.245 597.523 742.001 593.94 738.771 590.485C685.254 533.138 632.669 505.26 601.762 517.823C586.515 523.984 576.249 540.199 571.891 564.763C567.951 587.316 569.09 616.393 575.211 648.967C576.446 655.547 577.884 662.286 579.512 669.166C572.045 669.976 564.825 670.98 557.889 672.176C494.52 683.05 456.766 710.244 456.766 744.859C456.766 762.896 467.346 783.425 487.259 804.061C506.03 823.547 532.376 842.397 563.386 858.527C568.492 861.19 573.78 863.799 579.241 866.347C577.498 873.119 575.978 879.807 574.692 886.385C562.142 950.374 572.515 1002.05 602.28 1024.63C610.162 1030.62 619.498 1034.57 630.078 1036.44V1036.43C640.242 1038.24 651.65 1038.07 663.784 1035.84C687.017 1031.72 712.428 1020.38 737.113 1003.07C741.14 1000.24 745.183 997.217 749.234 994.002C754.496 1000.02 759.76 1005.78 765.012 1011.25ZM766.61 979.103C782.963 964.041 799.363 946.024 815.481 925.419C843.71 927.89 870.348 928.483 894.388 927.157C895.584 932.211 896.642 937.146 897.562 941.958C910.218 1008.43 897.979 1045.98 881.28 1052.72C865.203 1059.25 828.072 1043.91 781.297 995.165C776.436 990.108 771.534 984.741 766.61 979.103ZM911.606 899.797C914.951 899.39 918.222 898.933 921.419 898.43C985.412 888.399 1014.66 863.03 1014.66 843.743C1014.66 833.838 1007.19 820.835 993.605 807.063C977.944 791.153 955.125 775.116 927.849 760.79C922.252 757.872 916.466 755.017 910.504 752.231C903.343 774.225 893.767 797.209 882.129 820.388C894.393 848.504 904.294 875.156 911.606 899.797ZM867.991 846.841C875.817 866.13 882.367 884.543 887.57 901.859C870.69 902.749 852.445 902.639 833.209 901.55C839.235 893.017 845.205 884.129 851.099 874.906C857.03 865.606 862.668 856.232 867.991 846.841ZM854.584 815.67C847.017 830.022 838.635 844.431 829.524 858.683C820.377 872.984 811.06 886.447 801.647 898.979C784.335 897.154 766.443 894.622 748.212 891.392C729.977 888.159 712.359 884.481 695.471 880.395C685.54 864.08 675.982 847.175 666.999 829.979V829.989C657.975 812.721 649.651 795.43 642.112 778.349C649.659 763.867 657.944 749.512 666.848 735.572L666.897 735.61C675.908 721.506 685.397 708.018 695.216 695.304C712.617 697.054 730.389 699.513 748.212 702.674C766.201 705.863 783.97 709.694 801.295 714.09C810.947 730.113 820.37 746.89 829.422 764.209C838.622 781.807 847.025 799.001 854.584 815.67ZM867.741 788.998C875.127 772.906 881.395 757.054 886.42 741.741C869.619 734.915 851.771 728.623 833.186 722.97C839.22 733.543 845.131 744.365 850.892 755.39C856.828 766.755 862.448 777.968 867.741 788.998ZM815.103 692.613C842.57 700.067 868.863 708.902 893.105 718.843C894.053 715.102 894.92 711.406 895.697 707.762C909.282 643.753 897.562 601.017 880.864 588.359C872.359 581.944 858.566 580.133 841.97 583.342C822.782 587.033 801.105 597.053 779.326 612.276C774.877 615.379 770.417 618.696 765.958 622.212C782.513 643.109 799.092 666.863 815.103 692.613ZM748.506 637.012C759.939 651.499 771.412 667.464 782.707 684.586C771.292 682.023 759.738 679.7 748.107 677.64C736.64 675.606 725.257 673.853 714.007 672.383C725.278 659.447 736.842 647.587 748.506 637.012ZM731.043 616.013C728.112 612.678 725.191 609.452 722.282 606.342C671.875 552.366 631.011 535.007 614.312 541.74C605.807 545.129 599.479 556.422 596.471 573.406C593.049 593.028 594.087 619.064 599.689 648.529C600.834 654.627 602.165 660.878 603.673 667.262C627.875 666.022 654.108 666.564 681.525 668.879C697.436 649.117 714.12 631.292 731.043 616.013ZM586.183 694.432C579.236 695.176 572.558 696.099 566.187 697.2C507.899 707.302 481.762 730.616 481.762 749.28C481.762 767.943 509.869 804.206 571.477 836.289C576.118 838.706 580.928 841.075 585.899 843.396C593.251 820.534 602.927 796.992 614.604 773.537C603.067 746.31 593.489 719.653 586.183 694.432ZM628.91 746.622C621.672 728.079 615.46 709.968 610.387 692.6C627.047 691.821 644.819 691.913 663.278 692.863C657.16 701.373 651.198 710.159 645.427 719.178C639.638 728.235 634.126 737.399 628.91 746.622ZM628.91 805.466C621.537 821.755 615.186 837.991 610.029 853.779C626.602 860.357 644.558 866.444 663.687 871.977C657.431 861.093 651.333 849.971 645.427 838.665C639.641 827.597 634.129 816.514 628.91 805.466ZM681.753 902.059C653.352 894.724 627.024 886.229 603.3 876.736C601.664 883.078 600.249 889.311 599.065 895.406C587.552 954.355 598.651 993.029 614.624 1005.13C618.565 1008.12 623.75 1010.29 630.078 1011.42C650.717 1015.08 683.181 1007.7 720.726 981.403C724.409 978.822 728.109 976.06 731.822 973.123C714.733 951.685 697.866 927.742 681.753 902.059ZM714.148 909.728C725.63 926.965 737.417 943.246 749.224 958.158C760.624 947.581 772.081 935.442 783.466 921.895C771.884 920.366 760.111 918.547 748.212 916.436V916.416C736.614 914.358 725.252 912.127 714.148 909.728ZM800.277 805.737C800.277 776.836 776.96 749.269 748.212 744.171C719.461 739.073 696.143 758.383 696.143 787.283C696.143 816.184 719.461 843.753 748.212 848.852C776.96 853.95 800.277 834.64 800.277 805.737Z" fill="#62B5F9" fill-opacity="0.4"/>
<path d="M256.105 333.318L1274.5 512.879C1293.1 516.16 1308.17 533.878 1308.17 552.477V1234.2C1308.17 1252.8 1293.1 1265.21 1274.5 1261.93L256.105 1082.37C237.503 1079.09 222.438 1061.37 222.438 1042.77V361.048C222.438 342.449 237.503 330.034 256.105 333.318Z" fill="#DFC6FB" fill-opacity="0.3"/>
<path d="M1275.74 513.937C1294.34 517.218 1309.4 534.933 1309.4 553.535V1235.25C1309.4 1253.85 1294.34 1266.27 1275.74 1262.99L257.337 1083.42C238.737 1080.14 223.672 1062.43 223.672 1043.83L1275.74 513.937Z" fill="url(#paint1_linear_451_174)" fill-opacity="0.15"/>
</g>
<defs>
<filter id="filter0_f_451_174" x="-134" y="75.3223" width="1397.81" height="1254.38" filterUnits="userSpaceOnUse" color-interpolation-filters="sRGB">
<feFlood flood-opacity="0" result="BackgroundImageFix"/>
<feBlend mode="normal" in="SourceGraphic" in2="BackgroundImageFix" result="shape"/>
<feGaussianBlur stdDeviation="125" result="effect1_foregroundBlur_451_174"/>
</filter>
<filter id="filter1_f_451_174" x="241.012" y="84.2637" width="1488" height="1225.5" filterUnits="userSpaceOnUse" color-interpolation-filters="sRGB">
<feFlood flood-opacity="0" result="BackgroundImageFix"/>
<feBlend mode="normal" in="SourceGraphic" in2="BackgroundImageFix" result="shape"/>
<feGaussianBlur stdDeviation="125" result="effect1_foregroundBlur_451_174"/>
</filter>
<filter id="filter2_f_451_174" x="283.211" y="254.236" width="1255.55" height="1076.3" filterUnits="userSpaceOnUse" color-interpolation-filters="sRGB">
<feFlood flood-opacity="0" result="BackgroundImageFix"/>
<feBlend mode="normal" in="SourceGraphic" in2="BackgroundImageFix" result="shape"/>
<feGaussianBlur stdDeviation="125" result="effect1_foregroundBlur_451_174"/>
</filter>
<filter id="filter3_f_451_174" x="448.766" y="506.854" width="598.684" height="580.778" filterUnits="userSpaceOnUse" color-interpolation-filters="sRGB">
<feFlood flood-opacity="0" result="BackgroundImageFix"/>
<feBlend mode="normal" in="SourceGraphic" in2="BackgroundImageFix" result="shape"/>
<feGaussianBlur stdDeviation="4" result="effect1_foregroundBlur_451_174"/>
</filter>
<linearGradient id="paint0_linear_451_174" x1="1688.58" y1="259.296" x2="38.9282" y2="723.153" gradientUnits="userSpaceOnUse">
<stop stop-color="#FBC6CF"/>
<stop offset="1" stop-color="#161127"/>
</linearGradient>
<linearGradient id="paint1_linear_451_174" x1="976.835" y1="364.074" x2="534.731" y2="1263.64" gradientUnits="userSpaceOnUse">
<stop stop-color="#F5E3FF"/>
<stop offset="1" stop-color="#5365B1"/>
</linearGradient>
<clipPath id="clip0_451_174">
<rect width="1595" height="1595" fill="white"/>
</clipPath>
</defs>
</svg>
