<svg width="100%" height="100%" viewBox="0 0 4421 1480" fill="none" xmlns="http://www.w3.org/2000/svg">
<g opacity="0.8">
<g filter="url(#filter0_f_439_329)">
<path d="M3544.38 891.345C3438.5 918.354 3381.59 982.869 3274.07 963.519C3025.13 918.72 3057.33 446.379 3274.07 316.01C3404.46 237.57 3524.27 255.218 3663.78 316.01C3799.89 375.322 3852.64 427.161 3927.93 555.105C3955.3 601.626 3987.35 688.922 3970.35 751.446C3950.98 822.754 3895.68 855.861 3823.22 870.479C3748.63 885.528 3675.76 857.823 3544.38 891.345Z" fill="#F24664"/>
</g>
<g filter="url(#filter1_f_439_329)">
<path d="M3480.59 827.096C3389.89 850.241 3341.13 905.526 3249 888.943C3035.73 850.553 3063.33 445.784 3249 334.065C3360.73 266.844 3463.37 281.967 3582.89 334.065C3699.51 384.892 3744.69 429.313 3809.17 538.957C3832.63 578.821 3860.08 653.63 3845.54 707.207C3828.92 768.315 3781.57 796.687 3719.49 809.214C3655.58 822.112 3593.14 798.369 3480.59 827.096Z" fill="#F24664" fill-opacity="0.75"/>
</g>
<g filter="url(#filter2_f_439_329)">
<path d="M3790.99 475.653C3623.82 408.416 3451.18 446.2 3405.39 560.046C3359.59 673.892 3457.99 820.688 3625.16 887.926C3792.33 955.163 3964.97 917.378 4010.76 803.532C4056.55 689.686 3958.16 542.89 3790.99 475.653Z" fill="#FBC6CF"/>
</g>
</g>
<g opacity="0.2" filter="url(#filter3_f_439_329)">
<path d="M3490.94 543.298C3590.61 446.003 3612.31 338.511 3743.36 291.338C4046.74 182.126 4312.27 724.111 4156.09 1006.18C4062.12 1175.89 3918.63 1232.76 3725.85 1254.57C3537.76 1275.85 3446.5 1252.23 3281.84 1158.97C3221.96 1125.06 3130.93 1049.11 3109.85 969.255C3085.8 878.181 3125.72 806.39 3196.41 744.07C3269.14 679.913 3367.28 664.048 3490.94 543.298Z" fill="#001A72"/>
</g>
<mask id="mask0_439_329" style="mask-type:luminance" maskUnits="userSpaceOnUse" x="2872" y="204" width="1223" height="1080">
<path d="M4094.65 204.377H2872.15V1283.73H4094.65V204.377Z" fill="white"/>
</mask>
<g mask="url(#mask0_439_329)">
<path d="M2940.54 206.483L4026.27 397.913C4063.45 404.475 4093.61 439.929 4093.61 477.109V1226.16C4093.61 1263.34 4063.45 1288.17 4026.27 1281.62L2940.54 1090.19C2903.35 1083.63 2873.22 1048.18 2873.22 1011V261.947C2873.22 224.746 2903.35 199.918 2940.54 206.483Z" fill="#161127" fill-opacity="0.75"/>
<path d="M2940.54 206.483L4026.27 397.913C4063.45 404.475 4093.61 439.929 4093.61 477.109V1226.16C4093.61 1263.34 4063.45 1288.17 4026.27 1281.62L2940.54 1090.19C2903.35 1083.63 2873.22 1048.18 2873.22 1011V261.947C2873.22 224.746 2903.35 199.918 2940.54 206.483Z" stroke="url(#paint0_linear_439_329)" stroke-width="0.823333"/>
<path d="M2974.22 279.744L3992.61 459.305C4011.22 462.586 4026.27 480.304 4026.27 498.903V1180.62C4026.27 1199.22 4011.22 1211.64 3992.61 1208.36L2974.22 1028.79C2955.62 1025.51 2940.54 1007.8 2940.54 989.194V307.474C2940.54 288.875 2955.62 276.46 2974.22 279.744Z" fill="#FBC6C7" fill-opacity="0.25"/>
<path d="M3589.95 771.256C3589.95 834.338 3538.84 876.461 3475.74 865.329C3412.67 854.199 3361.53 794.064 3361.53 730.986C3361.53 667.904 3412.67 625.781 3475.74 636.911C3538.84 648.043 3589.95 708.177 3589.95 771.256Z" fill="#161127" fill-opacity="0.75"/>
<path d="M3530.12 761.555L3441.59 797.05V694.835L3530.12 761.555Z" fill="#F24664" fill-opacity="0.75"/>
<path opacity="0.5" d="M3386.37 925.739C3384.01 925.341 3381.66 924.372 3379.47 922.857C3308.19 873.874 3263.93 793.753 3263.93 713.777C3263.93 633.8 3308.19 569.288 3379.47 545.429C3386.93 542.925 3396.08 547.512 3399.89 555.654C3403.69 563.799 3400.75 572.424 3393.29 574.928C3332.21 595.36 3294.31 650.634 3294.31 719.141C3294.31 787.65 3332.24 856.285 3393.29 898.262C3400.75 903.396 3403.72 913.074 3399.89 919.869C3397.2 924.646 3391.86 926.728 3386.34 925.762L3386.37 925.739Z" fill="#F24664"/>
<path opacity="0.5" d="M3565.13 957.26C3559.59 956.291 3554.27 952.315 3551.59 946.593C3547.76 938.448 3550.75 929.823 3558.21 927.319C3619.26 906.887 3657.19 851.613 3657.19 783.106C3657.19 714.597 3619.24 645.962 3558.21 603.985C3550.75 598.851 3547.76 589.173 3551.59 582.378C3555.4 575.58 3564.55 574.233 3572.03 579.367C3643.29 628.352 3687.57 708.474 3687.57 788.45C3687.57 868.426 3643.29 932.936 3572.03 956.797C3569.81 957.533 3567.46 957.658 3565.13 957.239V957.26Z" fill="#F24664"/>
<path opacity="0.5" d="M3357.21 977.817C3354.86 977.418 3352.51 976.449 3350.28 974.934C3257.41 911.096 3199.73 806.694 3199.73 702.478C3199.73 598.263 3257.41 514.206 3350.28 483.107C3357.77 480.603 3366.92 485.19 3370.75 493.334C3374.56 501.476 3371.6 510.104 3364.13 512.606C3281.46 540.275 3230.12 615.096 3230.12 707.843C3230.12 800.591 3281.46 893.506 3364.13 950.339C3371.6 955.471 3374.59 965.151 3370.75 971.946C3368.04 976.723 3362.73 978.806 3357.21 977.84V977.817Z" fill="#F24664" fill-opacity="0.75"/>
<path opacity="0.5" d="M3594.29 1019.62C3588.75 1018.65 3583.43 1014.68 3580.75 1008.95C3576.94 1000.81 3579.9 992.182 3587.37 989.677C3670.04 962.008 3721.38 887.189 3721.38 794.441C3721.38 701.694 3670.01 608.777 3587.37 551.946C3579.9 546.812 3576.94 537.134 3580.75 530.337C3584.55 523.541 3593.73 522.195 3601.19 527.329C3694.06 591.167 3751.77 695.571 3751.77 799.807C3751.77 904.043 3694.06 988.08 3601.19 1019.18C3598.97 1019.91 3596.62 1020.04 3594.29 1019.62Z" fill="#F24664" fill-opacity="0.75"/>
<path opacity="0.5" d="M3327.41 1031.74C3325.08 1031.32 3322.73 1030.37 3320.51 1028.86C3205.61 949.869 3134.23 820.701 3134.23 691.74C3134.23 562.782 3205.61 458.799 3320.51 420.338C3328 417.833 3337.15 422.42 3340.98 430.562C3344.79 438.704 3341.82 447.332 3334.36 449.836C3229.66 484.891 3164.62 579.636 3164.62 697.107C3164.62 814.578 3229.66 932.279 3334.36 1004.24C3341.82 1009.37 3344.81 1019.05 3340.98 1025.85C3338.27 1030.62 3332.96 1032.71 3327.41 1031.74Z" fill="#F24664" fill-opacity="0.5"/>
<path opacity="0.5" d="M3624.06 1084.05C3618.52 1083.08 3613.2 1079.11 3610.52 1073.38C3606.71 1065.24 3609.68 1056.61 3617.14 1054.11C3721.84 1019.06 3786.88 924.309 3786.88 806.84C3786.88 689.369 3721.84 571.667 3617.14 499.708C3609.68 494.574 3606.71 484.894 3610.52 478.098C3614.33 471.303 3623.5 469.956 3630.96 475.09C3745.87 554.078 3817.24 683.246 3817.24 812.204C3817.24 941.162 3745.87 1045.15 3630.96 1083.61C3628.74 1084.35 3626.39 1084.47 3624.06 1084.05Z" fill="#F24664" fill-opacity="0.5"/>
<path d="M3992.61 459.31C4011.22 462.591 4026.27 480.306 4026.27 498.908V1180.63C4026.27 1199.23 4011.22 1211.64 3992.61 1208.36L2974.22 1028.8C2955.62 1025.52 2940.54 1007.8 2940.54 989.199L3992.61 459.31Z" fill="url(#paint1_linear_439_329)" fill-opacity="0.25"/>
</g>
<g filter="url(#filter4_f_439_329)">
<path d="M763.279 860.859C665.66 915.668 626.446 994.614 514.88 1003.98C256.602 1025.66 163.207 549.605 343.15 363.09C451.422 250.865 574.669 236.565 728.883 259.736C879.341 282.342 945.291 319.663 1053.74 426.335C1093.17 465.121 1148.04 543.024 1147.81 609.415C1147.54 685.136 1101.59 732.567 1033.75 766.252C963.916 800.931 884.434 792.835 763.279 860.859Z" fill="#001A72"/>
</g>
<g filter="url(#filter5_f_439_329)">
<path d="M1110.89 337.369C1230.31 309.513 1294.5 242.982 1415.79 262.938C1696.61 309.137 1660.28 796.252 1415.79 930.7C1268.69 1011.59 1133.56 993.393 976.186 930.7C822.644 869.532 763.146 816.073 678.223 684.124C647.346 636.151 611.197 546.124 630.364 481.645C652.227 408.106 714.597 373.964 796.329 358.886C880.467 343.366 962.677 371.938 1110.89 337.369Z" fill="#001A72"/>
</g>
<g filter="url(#filter6_f_439_329)">
<path d="M945.209 965.461C1146.39 1046.37 1354.15 1000.9 1409.25 863.894C1464.36 726.887 1345.95 550.227 1144.77 469.314C943.594 388.4 735.834 433.873 680.727 570.88C625.619 707.887 744.032 884.547 945.209 965.461Z" fill="#FBC6CF"/>
</g>
<path d="M356.437 185.053L1442.17 376.482C1479.35 383.044 1509.5 418.497 1509.5 455.678V1204.73C1509.5 1241.91 1479.35 1266.73 1442.17 1260.19L356.437 1068.76C319.257 1062.2 289.105 1026.75 289.105 989.564V240.516C289.105 203.315 319.257 178.487 356.437 185.053Z" fill="#161127" fill-opacity="0.75"/>
<path d="M357.673 186.11L1443.4 377.539C1480.58 384.102 1510.74 419.558 1510.74 456.736V1205.78C1510.74 1242.97 1480.58 1267.79 1443.4 1261.25L357.673 1069.82C320.491 1063.26 290.34 1027.8 290.34 990.622V241.573C290.34 204.372 320.491 179.545 357.673 186.11Z" stroke="url(#paint2_linear_439_329)" stroke-width="0.823333"/>
<g filter="url(#filter7_f_439_329)">
<path fill-rule="evenodd" clip-rule="evenodd" d="M899.012 936.253C936.35 975.197 972.134 998.634 1000.35 1003.64V1003.63C1010.61 1005.45 1019.84 1004.8 1027.62 1001.59C1043.18 995.278 1053.97 978.731 1058.74 953.613C1063.2 930.007 1062.16 899.803 1055.83 866.356C1054.83 861.066 1053.68 855.64 1052.37 850.092C1056.06 849.648 1059.67 849.149 1063.2 848.6C1131.23 838.027 1173.45 809.124 1173.45 773.152C1173.45 755.532 1163.08 735.649 1143.47 715.703C1125.43 697.49 1100.02 679.43 1069.84 663.654C1063.81 660.49 1057.58 657.401 1051.16 654.39C1052.23 650.202 1053.2 646.062 1054.07 641.978C1068.59 574.072 1058.32 517.195 1027.31 493.766C1012.17 482.33 991.424 478.65 967.467 483.268C945.479 487.5 921.106 498.616 897.042 515.412C892.196 518.787 887.343 522.398 882.495 526.232C879.245 522.524 876.001 518.941 872.771 515.486C819.254 458.139 766.669 430.26 735.762 442.824C720.515 448.985 710.249 465.2 705.891 489.764C701.951 512.317 703.09 541.394 709.211 573.967C710.446 580.548 711.884 587.287 713.512 594.166C706.045 594.976 698.825 595.98 691.889 597.176C628.52 608.05 590.766 635.244 590.766 669.859C590.766 687.896 601.346 708.425 621.259 729.061C640.03 748.547 666.376 767.397 697.386 783.528C702.492 786.191 707.78 788.8 713.241 791.348C711.498 798.12 709.978 804.808 708.692 811.386C696.142 875.374 706.515 927.048 736.28 949.631C744.162 955.616 753.498 959.567 764.078 961.443V961.433C774.242 963.237 785.65 963.071 797.784 960.84C821.017 956.72 846.428 945.376 871.113 928.07C875.14 925.241 879.183 922.218 883.234 919.003C888.496 925.018 893.76 930.776 899.012 936.253ZM900.61 904.104C916.963 889.041 933.363 871.025 949.481 850.419C977.71 852.891 1004.35 853.483 1028.39 852.157C1029.58 857.212 1030.64 862.147 1031.56 866.959C1044.22 933.429 1031.98 970.985 1015.28 977.719C999.203 984.246 962.072 968.91 915.297 920.166C910.436 915.108 905.534 909.741 900.61 904.104ZM1045.61 824.797C1048.95 824.391 1052.22 823.933 1055.42 823.43C1119.41 813.399 1148.66 788.03 1148.66 768.744C1148.66 758.838 1141.19 745.836 1127.61 732.064C1111.94 716.153 1089.13 700.117 1061.85 685.79C1056.25 682.872 1050.47 680.017 1044.5 677.232C1037.34 699.225 1027.77 722.21 1016.13 745.389C1028.39 773.505 1038.29 800.157 1045.61 824.797ZM1001.99 771.841C1009.82 791.13 1016.37 809.543 1021.57 826.86C1004.69 827.749 986.445 827.639 967.209 826.55C973.235 818.017 979.205 809.129 985.099 799.906C991.03 790.607 996.668 781.233 1001.99 771.841ZM988.584 740.671C981.017 755.023 972.635 769.431 963.524 783.684C954.377 797.984 945.06 811.447 935.647 823.98C918.335 822.155 900.443 819.622 882.212 816.392C863.977 813.159 846.359 809.482 829.471 805.396C819.54 789.081 809.982 772.176 800.999 754.98V754.99C791.975 737.722 783.651 720.431 776.112 703.35C783.659 688.867 791.944 674.513 800.848 660.572L800.897 660.611C809.908 646.506 819.397 633.018 829.216 620.304C846.617 622.055 864.389 624.513 882.212 627.675C900.201 630.864 917.97 634.695 935.295 639.09C944.947 655.113 954.37 671.891 963.422 689.21C972.622 706.807 981.025 724.001 988.584 740.671ZM1001.74 713.999C1009.13 697.906 1015.4 682.054 1020.42 666.741C1003.62 659.915 985.771 653.624 967.186 647.971C973.22 658.543 979.131 669.366 984.892 680.391C990.828 691.755 996.448 702.969 1001.74 713.999ZM949.103 617.613C976.57 625.068 1002.86 633.902 1027.11 643.844C1028.05 640.102 1028.92 636.407 1029.7 632.763C1043.28 568.754 1031.56 526.017 1014.86 513.359C1006.36 506.945 992.566 505.133 975.97 508.343C956.782 512.033 935.105 522.053 913.326 537.277C908.877 540.379 904.417 543.696 899.958 547.213C916.513 568.11 933.092 591.863 949.103 617.613ZM882.506 562.012C893.939 576.5 905.412 592.464 916.707 609.586C905.292 607.023 893.738 604.7 882.107 602.64C870.64 600.606 859.257 598.853 848.007 597.384C859.278 584.447 870.842 572.587 882.506 562.012ZM865.043 541.013C862.112 537.678 859.191 534.453 856.282 531.343C805.875 477.367 765.011 460.007 748.312 466.741C739.807 470.13 733.479 481.423 730.471 498.407C727.049 518.028 728.087 544.064 733.689 573.53C734.834 579.627 736.165 585.878 737.673 592.262C761.875 591.023 788.108 591.565 815.525 593.88C831.436 574.118 848.12 556.293 865.043 541.013ZM720.183 619.433C713.236 620.177 706.558 621.099 700.187 622.201C641.899 632.303 615.762 655.617 615.762 674.28C615.762 692.943 643.869 729.207 705.477 761.289C710.118 763.707 714.928 766.076 719.899 768.396C727.251 745.534 736.927 721.992 748.604 698.538C737.067 671.311 727.489 644.654 720.183 619.433ZM762.91 671.622C755.672 653.079 749.46 634.968 744.387 617.6C761.047 616.821 778.819 616.913 797.278 617.864C791.16 626.374 785.198 635.16 779.427 644.178C773.638 653.235 768.126 662.399 762.91 671.622ZM762.91 730.467C755.537 746.756 749.186 762.991 744.029 778.779C760.602 785.357 778.558 791.445 797.687 796.978C791.431 786.093 785.333 774.972 779.427 763.666C773.641 752.598 768.129 741.514 762.91 730.467ZM815.753 827.059C787.352 819.725 761.024 811.23 737.3 801.736C735.664 808.079 734.249 814.312 733.065 820.407C721.552 879.356 732.651 918.029 748.624 930.132C752.565 933.125 757.75 935.294 764.078 936.421C784.717 940.081 817.181 932.698 854.726 906.404C858.409 903.823 862.109 901.06 865.822 898.124C848.733 876.685 831.866 852.742 815.753 827.059ZM848.148 834.728C859.63 851.965 871.417 868.247 883.224 883.158C894.624 872.581 906.081 860.442 917.466 846.895C905.884 845.367 894.111 843.547 882.212 841.437V841.416C870.614 839.359 859.252 837.128 848.148 834.728ZM934.277 730.737C934.277 701.837 910.96 674.27 882.212 669.172C853.461 664.073 830.143 683.383 830.143 712.284C830.143 741.185 853.461 768.754 882.212 773.852C910.96 778.951 934.277 759.641 934.277 730.737Z" fill="#62B5F9" fill-opacity="0.3"/>
</g>
<path fill-rule="evenodd" clip-rule="evenodd" d="M899.012 936.253C936.35 975.197 972.134 998.634 1000.35 1003.64V1003.63C1010.61 1005.45 1019.84 1004.8 1027.62 1001.59C1043.18 995.278 1053.97 978.731 1058.74 953.613C1063.2 930.007 1062.16 899.803 1055.83 866.356C1054.83 861.066 1053.68 855.64 1052.37 850.092C1056.06 849.648 1059.67 849.149 1063.2 848.6C1131.23 838.027 1173.45 809.124 1173.45 773.152C1173.45 755.532 1163.08 735.649 1143.47 715.703C1125.43 697.49 1100.02 679.43 1069.84 663.654C1063.81 660.49 1057.58 657.401 1051.16 654.39C1052.23 650.202 1053.2 646.062 1054.07 641.978C1068.59 574.072 1058.32 517.195 1027.31 493.766C1012.17 482.33 991.424 478.65 967.467 483.268C945.479 487.5 921.106 498.616 897.042 515.412C892.196 518.787 887.343 522.398 882.495 526.232C879.245 522.524 876.001 518.941 872.771 515.486C819.254 458.139 766.669 430.26 735.762 442.824C720.515 448.985 710.249 465.2 705.891 489.764C701.951 512.317 703.09 541.394 709.211 573.967C710.446 580.548 711.884 587.287 713.512 594.166C706.045 594.976 698.825 595.98 691.889 597.176C628.52 608.05 590.766 635.244 590.766 669.859C590.766 687.896 601.346 708.425 621.259 729.061C640.03 748.547 666.376 767.397 697.386 783.528C702.492 786.191 707.78 788.8 713.241 791.348C711.498 798.12 709.978 804.808 708.692 811.386C696.142 875.374 706.515 927.048 736.28 949.631C744.162 955.616 753.498 959.567 764.078 961.443V961.433C774.242 963.237 785.65 963.071 797.784 960.84C821.017 956.72 846.428 945.376 871.113 928.07C875.14 925.241 879.183 922.218 883.234 919.003C888.496 925.018 893.76 930.776 899.012 936.253ZM900.61 904.104C916.963 889.041 933.363 871.025 949.481 850.419C977.71 852.891 1004.35 853.483 1028.39 852.157C1029.58 857.212 1030.64 862.147 1031.56 866.959C1044.22 933.429 1031.98 970.985 1015.28 977.719C999.203 984.246 962.072 968.91 915.297 920.166C910.436 915.108 905.534 909.741 900.61 904.104ZM1045.61 824.797C1048.95 824.391 1052.22 823.933 1055.42 823.43C1119.41 813.399 1148.66 788.03 1148.66 768.744C1148.66 758.838 1141.19 745.836 1127.61 732.064C1111.94 716.153 1089.13 700.117 1061.85 685.79C1056.25 682.872 1050.47 680.017 1044.5 677.232C1037.34 699.225 1027.77 722.21 1016.13 745.389C1028.39 773.505 1038.29 800.157 1045.61 824.797ZM1001.99 771.841C1009.82 791.13 1016.37 809.543 1021.57 826.86C1004.69 827.749 986.445 827.639 967.209 826.55C973.235 818.017 979.205 809.129 985.099 799.906C991.03 790.607 996.668 781.233 1001.99 771.841ZM988.584 740.671C981.017 755.023 972.635 769.431 963.524 783.684C954.377 797.984 945.06 811.447 935.647 823.98C918.335 822.155 900.443 819.622 882.212 816.392C863.977 813.159 846.359 809.482 829.471 805.396C819.54 789.081 809.982 772.176 800.999 754.98V754.99C791.975 737.722 783.651 720.431 776.112 703.35C783.659 688.867 791.944 674.513 800.848 660.572L800.897 660.611C809.908 646.506 819.397 633.018 829.216 620.304C846.617 622.055 864.389 624.513 882.212 627.675C900.201 630.864 917.97 634.695 935.295 639.09C944.947 655.113 954.37 671.891 963.422 689.21C972.622 706.807 981.025 724.001 988.584 740.671ZM1001.74 713.999C1009.13 697.906 1015.4 682.054 1020.42 666.741C1003.62 659.915 985.771 653.624 967.186 647.971C973.22 658.543 979.131 669.366 984.892 680.391C990.828 691.755 996.448 702.969 1001.74 713.999ZM949.103 617.613C976.57 625.068 1002.86 633.902 1027.11 643.844C1028.05 640.102 1028.92 636.407 1029.7 632.763C1043.28 568.754 1031.56 526.017 1014.86 513.359C1006.36 506.945 992.566 505.133 975.97 508.343C956.782 512.033 935.105 522.053 913.326 537.277C908.877 540.379 904.417 543.696 899.958 547.213C916.513 568.11 933.092 591.863 949.103 617.613ZM882.506 562.012C893.939 576.5 905.412 592.464 916.707 609.586C905.292 607.023 893.738 604.7 882.107 602.64C870.64 600.606 859.257 598.853 848.007 597.384C859.278 584.447 870.842 572.587 882.506 562.012ZM865.043 541.013C862.112 537.678 859.191 534.453 856.282 531.343C805.875 477.367 765.011 460.007 748.312 466.741C739.807 470.13 733.479 481.423 730.471 498.407C727.049 518.028 728.087 544.064 733.689 573.53C734.834 579.627 736.165 585.878 737.673 592.262C761.875 591.023 788.108 591.565 815.525 593.88C831.436 574.118 848.12 556.293 865.043 541.013ZM720.183 619.433C713.236 620.177 706.558 621.099 700.187 622.201C641.899 632.303 615.762 655.617 615.762 674.28C615.762 692.943 643.869 729.207 705.477 761.289C710.118 763.707 714.928 766.076 719.899 768.396C727.251 745.534 736.927 721.992 748.604 698.538C737.067 671.311 727.489 644.654 720.183 619.433ZM762.91 671.622C755.672 653.079 749.46 634.968 744.387 617.6C761.047 616.821 778.819 616.913 797.278 617.864C791.16 626.374 785.198 635.16 779.427 644.178C773.638 653.235 768.126 662.399 762.91 671.622ZM762.91 730.467C755.537 746.756 749.186 762.991 744.029 778.779C760.602 785.357 778.558 791.445 797.687 796.978C791.431 786.093 785.333 774.972 779.427 763.666C773.641 752.598 768.129 741.514 762.91 730.467ZM815.753 827.059C787.352 819.725 761.024 811.23 737.3 801.736C735.664 808.079 734.249 814.312 733.065 820.407C721.552 879.356 732.651 918.029 748.624 930.132C752.565 933.125 757.75 935.294 764.078 936.421C784.717 940.081 817.181 932.698 854.726 906.404C858.409 903.823 862.109 901.06 865.822 898.124C848.733 876.685 831.866 852.742 815.753 827.059ZM848.148 834.728C859.63 851.965 871.417 868.247 883.224 883.158C894.624 872.581 906.081 860.442 917.466 846.895C905.884 845.367 894.111 843.547 882.212 841.437V841.416C870.614 839.359 859.252 837.128 848.148 834.728ZM934.277 730.737C934.277 701.837 910.96 674.27 882.212 669.172C853.461 664.073 830.143 683.383 830.143 712.284C830.143 741.185 853.461 768.754 882.212 773.852C910.96 778.951 934.277 759.641 934.277 730.737Z" fill="#62B5F9" fill-opacity="0.4"/>
<path d="M390.105 258.318L1408.5 437.879C1427.1 441.16 1442.17 458.878 1442.17 477.477V1159.2C1442.17 1177.8 1427.1 1190.21 1408.5 1186.93L390.105 1007.37C371.503 1004.09 356.438 986.37 356.438 967.768V286.048C356.438 267.449 371.503 255.034 390.105 258.318Z" fill="#DFC6FB" fill-opacity="0.3"/>
<path d="M1409.74 438.937C1428.34 442.218 1443.4 459.933 1443.4 478.535V1160.25C1443.4 1178.85 1428.34 1191.27 1409.74 1187.99L391.337 1008.42C372.737 1005.14 357.672 987.425 357.672 968.826L1409.74 438.937Z" fill="url(#paint3_linear_439_329)" fill-opacity="0.15"/>
<defs>
<filter id="filter0_f_439_329" x="2849.23" y="13.5898" width="1375.87" height="1203.49" filterUnits="userSpaceOnUse" color-interpolation-filters="sRGB">
<feFlood flood-opacity="0" result="BackgroundImageFix"/>
<feBlend mode="normal" in="SourceGraphic" in2="BackgroundImageFix" result="shape"/>
<feGaussianBlur stdDeviation="125" result="effect1_foregroundBlur_439_329"/>
</filter>
<filter id="filter1_f_439_329" x="2999.22" y="189.142" width="950.371" height="802.854" filterUnits="userSpaceOnUse" color-interpolation-filters="sRGB">
<feFlood flood-opacity="0" result="BackgroundImageFix"/>
<feBlend mode="normal" in="SourceGraphic" in2="BackgroundImageFix" result="shape"/>
<feGaussianBlur stdDeviation="50" result="effect1_foregroundBlur_439_329"/>
</filter>
<filter id="filter2_f_439_329" x="3144.16" y="192.349" width="1127.83" height="978.881" filterUnits="userSpaceOnUse" color-interpolation-filters="sRGB">
<feFlood flood-opacity="0" result="BackgroundImageFix"/>
<feBlend mode="normal" in="SourceGraphic" in2="BackgroundImageFix" result="shape"/>
<feGaussianBlur stdDeviation="125" result="effect1_foregroundBlur_439_329"/>
</filter>
<filter id="filter3_f_439_329" x="2884.85" y="59.0363" width="1535.41" height="1420.77" filterUnits="userSpaceOnUse" color-interpolation-filters="sRGB">
<feFlood flood-opacity="0" result="BackgroundImageFix"/>
<feBlend mode="normal" in="SourceGraphic" in2="BackgroundImageFix" result="shape"/>
<feGaussianBlur stdDeviation="108.987" result="effect1_foregroundBlur_439_329"/>
</filter>
<filter id="filter4_f_439_329" x="0" y="0.321777" width="1397.81" height="1254.37" filterUnits="userSpaceOnUse" color-interpolation-filters="sRGB">
<feFlood flood-opacity="0" result="BackgroundImageFix"/>
<feBlend mode="normal" in="SourceGraphic" in2="BackgroundImageFix" result="shape"/>
<feGaussianBlur stdDeviation="125" result="effect1_foregroundBlur_439_329"/>
</filter>
<filter id="filter5_f_439_329" x="375.012" y="9.26318" width="1488" height="1225.5" filterUnits="userSpaceOnUse" color-interpolation-filters="sRGB">
<feFlood flood-opacity="0" result="BackgroundImageFix"/>
<feBlend mode="normal" in="SourceGraphic" in2="BackgroundImageFix" result="shape"/>
<feGaussianBlur stdDeviation="125" result="effect1_foregroundBlur_439_329"/>
</filter>
<filter id="filter6_f_439_329" x="417.211" y="179.236" width="1255.55" height="1076.3" filterUnits="userSpaceOnUse" color-interpolation-filters="sRGB">
<feFlood flood-opacity="0" result="BackgroundImageFix"/>
<feBlend mode="normal" in="SourceGraphic" in2="BackgroundImageFix" result="shape"/>
<feGaussianBlur stdDeviation="125" result="effect1_foregroundBlur_439_329"/>
</filter>
<filter id="filter7_f_439_329" x="582.766" y="431.854" width="598.684" height="580.778" filterUnits="userSpaceOnUse" color-interpolation-filters="sRGB">
<feFlood flood-opacity="0" result="BackgroundImageFix"/>
<feBlend mode="normal" in="SourceGraphic" in2="BackgroundImageFix" result="shape"/>
<feGaussianBlur stdDeviation="4" result="effect1_foregroundBlur_439_329"/>
</filter>
<linearGradient id="paint0_linear_439_329" x1="4405.45" y1="204.669" x2="2755.8" y2="668.526" gradientUnits="userSpaceOnUse">
<stop stop-color="#FBC6CF"/>
<stop offset="1" stop-color="#161127"/>
</linearGradient>
<linearGradient id="paint1_linear_439_329" x1="3643.87" y1="287.725" x2="3298.88" y2="1252.45" gradientUnits="userSpaceOnUse">
<stop stop-color="#FBC6CF"/>
<stop offset="1" stop-color="#853946"/>
</linearGradient>
<linearGradient id="paint2_linear_439_329" x1="1822.58" y1="184.296" x2="172.928" y2="648.153" gradientUnits="userSpaceOnUse">
<stop stop-color="#FBC6CF"/>
<stop offset="1" stop-color="#161127"/>
</linearGradient>
<linearGradient id="paint3_linear_439_329" x1="1110.84" y1="289.074" x2="668.731" y2="1188.64" gradientUnits="userSpaceOnUse">
<stop stop-color="#F5E3FF"/>
<stop offset="1" stop-color="#5365B1"/>
</linearGradient>
</defs>
</svg>
