<svg width="1595" height="100%" viewBox="0 0 1595 1595" fill="none" xmlns="http://www.w3.org/2000/svg">
<g clip-path="url(#clip0_451_175)">
<g opacity="0.8">
<g filter="url(#filter0_f_451_175)">
<path d="M805.231 944.968C699.351 971.977 642.438 1036.49 534.923 1017.14C285.979 972.343 318.18 500.002 534.923 369.633C665.311 291.193 785.118 308.841 924.63 369.633C1060.74 428.945 1113.49 480.784 1188.78 608.728C1216.15 655.249 1248.2 742.545 1231.2 805.069C1211.83 876.377 1156.53 909.484 1084.08 924.102C1009.48 939.151 936.615 911.446 805.231 944.968Z" fill="#F24664"/>
</g>
<g filter="url(#filter1_f_451_175)">
<path d="M741.443 880.718C650.744 903.864 601.983 959.148 509.853 942.565C296.586 904.176 324.187 499.406 509.853 387.688C621.585 320.466 724.219 335.59 843.745 387.688C960.358 438.515 1005.54 482.936 1070.02 592.579C1093.48 632.443 1120.93 707.252 1106.39 760.829C1089.78 821.938 1042.42 850.31 980.343 862.837C916.427 875.735 853.993 851.991 741.443 880.718Z" fill="#F24664" fill-opacity="0.75"/>
</g>
<g filter="url(#filter2_f_451_175)">
<path d="M1051.84 529.276C884.669 462.039 712.029 499.823 666.237 613.669C620.444 727.515 718.839 874.312 886.009 941.549C1053.18 1008.79 1225.82 971.002 1271.61 857.156C1317.4 743.31 1219.01 596.513 1051.84 529.276Z" fill="#FBC6CF"/>
</g>
</g>
<g opacity="0.2" filter="url(#filter3_f_451_175)">
<path d="M751.794 596.921C851.463 499.625 873.16 392.134 1004.21 344.961C1307.59 235.749 1573.12 777.734 1416.95 1059.8C1322.98 1229.52 1179.48 1286.38 986.706 1308.19C798.612 1329.47 707.351 1305.86 542.692 1212.59C482.814 1178.68 391.783 1102.73 370.699 1022.88C346.65 931.803 386.569 860.013 457.258 797.693C529.991 733.536 628.127 717.671 751.794 596.921Z" fill="#001A72"/>
</g>
<mask id="mask0_451_175" style="mask-type:luminance" maskUnits="userSpaceOnUse" x="133" y="258" width="1223" height="1080">
<path d="M1355.5 258H133V1337.35H1355.5V258Z" fill="white"/>
</mask>
<g mask="url(#mask0_451_175)">
<path d="M201.39 260.105L1287.12 451.535C1324.31 458.098 1354.46 493.551 1354.46 530.732V1279.78C1354.46 1316.96 1324.31 1341.79 1287.12 1335.25L201.39 1143.82C164.205 1137.25 134.074 1101.8 134.074 1064.62V315.569C134.074 278.368 164.205 253.54 201.39 260.105Z" fill="#161127" fill-opacity="0.75"/>
<path d="M201.39 260.105L1287.12 451.535C1324.31 458.098 1354.46 493.551 1354.46 530.732V1279.78C1354.46 1316.96 1324.31 1341.79 1287.12 1335.25L201.39 1143.82C164.205 1137.25 134.074 1101.8 134.074 1064.62V315.569C134.074 278.368 164.205 253.54 201.39 260.105Z" stroke="url(#paint0_linear_451_175)" stroke-width="0.823333"/>
<path d="M235.074 333.366L1253.46 512.928C1272.07 516.209 1287.12 533.926 1287.12 552.526V1234.25C1287.12 1252.85 1272.07 1265.26 1253.46 1261.98L235.074 1082.42C216.469 1079.13 201.391 1061.42 201.391 1042.82V361.097C201.391 342.497 216.469 330.083 235.074 333.366Z" fill="#FBC6C7" fill-opacity="0.25"/>
<path d="M850.801 824.879C850.801 887.96 799.688 930.083 736.59 918.951C673.517 907.822 622.379 847.687 622.379 784.608C622.379 721.527 673.517 679.404 736.59 690.533C799.688 701.665 850.801 761.8 850.801 824.879Z" fill="#161127" fill-opacity="0.75"/>
<path d="M790.972 815.177L702.445 850.672V748.457L790.972 815.177Z" fill="#F24664" fill-opacity="0.75"/>
<path opacity="0.5" d="M647.217 979.363C644.866 978.964 642.515 977.995 640.317 976.48C569.041 927.498 524.777 847.376 524.777 767.4C524.777 687.424 569.041 622.911 640.317 599.052C647.78 596.548 656.929 601.135 660.737 609.277C664.545 617.422 661.605 626.047 654.143 628.551C593.064 648.983 555.164 704.257 555.164 772.764C555.164 841.273 593.089 909.908 654.143 951.885C661.605 957.019 664.57 966.697 660.737 973.492C658.053 978.269 652.712 980.352 647.192 979.386L647.217 979.363Z" fill="#F24664"/>
<path opacity="0.5" d="M825.986 1010.88C820.44 1009.91 815.124 1005.94 812.441 1000.22C808.608 992.071 811.598 983.446 819.06 980.941C880.114 960.51 918.039 905.236 918.039 836.729C918.039 768.22 880.088 699.585 819.06 657.607C811.598 652.473 808.608 642.795 812.441 636C816.249 629.202 825.398 627.856 832.886 632.99C904.137 681.975 948.426 762.096 948.426 842.073C948.426 922.049 904.137 986.559 832.886 1010.42C830.663 1011.16 828.311 1011.28 825.986 1010.86V1010.88Z" fill="#F24664"/>
<path opacity="0.5" d="M618.06 1031.44C615.708 1031.04 613.357 1030.07 611.134 1028.56C518.263 964.719 460.582 860.317 460.582 756.102C460.582 651.886 518.263 567.829 611.134 536.73C618.622 534.226 627.771 538.813 631.605 546.957C635.412 555.099 632.448 563.727 624.986 566.229C542.311 593.898 490.968 668.719 490.968 761.466C490.968 854.214 542.311 947.129 624.986 1003.96C632.448 1009.09 635.438 1018.77 631.605 1025.57C628.896 1030.35 623.58 1032.43 618.06 1031.46V1031.44Z" fill="#F24664" fill-opacity="0.75"/>
<path opacity="0.5" d="M855.142 1073.24C849.597 1072.27 844.281 1068.3 841.598 1062.57C837.79 1054.43 840.754 1045.8 848.217 1043.3C930.891 1015.63 982.234 940.811 982.234 848.063C982.234 755.316 930.866 662.399 848.217 605.568C840.754 600.434 837.79 590.756 841.598 583.959C845.406 577.163 854.58 575.817 862.043 580.951C954.914 644.789 1012.62 749.193 1012.62 853.429C1012.62 957.665 954.914 1041.7 862.043 1072.8C859.819 1073.54 857.468 1073.66 855.142 1073.24Z" fill="#F24664" fill-opacity="0.75"/>
<path opacity="0.5" d="M588.262 1085.36C585.936 1084.94 583.585 1083.99 581.362 1082.48C466.461 1003.49 395.082 874.324 395.082 745.363C395.082 616.405 466.461 512.422 581.362 473.961C588.85 471.456 597.999 476.043 601.832 484.185C605.64 492.327 602.676 500.955 595.213 503.459C490.509 538.514 425.468 633.259 425.468 750.73C425.468 868.201 490.509 985.902 595.213 1057.86C602.676 1063 605.666 1072.67 601.832 1079.47C599.123 1084.25 593.808 1086.33 588.262 1085.36Z" fill="#F24664" fill-opacity="0.5"/>
<path opacity="0.5" d="M884.916 1137.67C879.37 1136.7 874.055 1132.73 871.371 1127C867.563 1118.86 870.528 1110.23 877.99 1107.73C982.694 1072.68 1047.73 977.931 1047.73 860.462C1047.73 742.991 982.694 625.29 877.99 553.33C870.528 548.196 867.563 538.516 871.371 531.72C875.179 524.925 884.354 523.578 891.816 528.713C1006.72 607.7 1078.1 736.868 1078.1 865.826C1078.1 994.785 1006.72 1098.77 891.816 1137.23C889.593 1137.97 887.242 1138.09 884.916 1137.67Z" fill="#F24664" fill-opacity="0.5"/>
<path d="M1253.46 512.933C1272.07 516.214 1287.12 533.929 1287.12 552.531V1234.25C1287.12 1252.85 1272.07 1265.27 1253.46 1261.98L235.074 1082.42C216.469 1079.14 201.391 1061.42 201.391 1042.82L1253.46 512.933Z" fill="url(#paint1_linear_451_175)" fill-opacity="0.25"/>
</g>
</g>
<defs>
<filter id="filter0_f_451_175" x="110.082" y="67.2129" width="1375.87" height="1203.49" filterUnits="userSpaceOnUse" color-interpolation-filters="sRGB">
<feFlood flood-opacity="0" result="BackgroundImageFix"/>
<feBlend mode="normal" in="SourceGraphic" in2="BackgroundImageFix" result="shape"/>
<feGaussianBlur stdDeviation="125" result="effect1_foregroundBlur_451_175"/>
</filter>
<filter id="filter1_f_451_175" x="260.074" y="242.765" width="950.371" height="802.854" filterUnits="userSpaceOnUse" color-interpolation-filters="sRGB">
<feFlood flood-opacity="0" result="BackgroundImageFix"/>
<feBlend mode="normal" in="SourceGraphic" in2="BackgroundImageFix" result="shape"/>
<feGaussianBlur stdDeviation="50" result="effect1_foregroundBlur_451_175"/>
</filter>
<filter id="filter2_f_451_175" x="405.008" y="245.972" width="1127.83" height="978.881" filterUnits="userSpaceOnUse" color-interpolation-filters="sRGB">
<feFlood flood-opacity="0" result="BackgroundImageFix"/>
<feBlend mode="normal" in="SourceGraphic" in2="BackgroundImageFix" result="shape"/>
<feGaussianBlur stdDeviation="125" result="effect1_foregroundBlur_451_175"/>
</filter>
<filter id="filter3_f_451_175" x="145.706" y="112.659" width="1535.41" height="1420.77" filterUnits="userSpaceOnUse" color-interpolation-filters="sRGB">
<feFlood flood-opacity="0" result="BackgroundImageFix"/>
<feBlend mode="normal" in="SourceGraphic" in2="BackgroundImageFix" result="shape"/>
<feGaussianBlur stdDeviation="108.987" result="effect1_foregroundBlur_451_175"/>
</filter>
<linearGradient id="paint0_linear_451_175" x1="1666.3" y1="258.292" x2="16.6498" y2="722.148" gradientUnits="userSpaceOnUse">
<stop stop-color="#FBC6CF"/>
<stop offset="1" stop-color="#161127"/>
</linearGradient>
<linearGradient id="paint1_linear_451_175" x1="904.724" y1="341.348" x2="559.731" y2="1306.08" gradientUnits="userSpaceOnUse">
<stop stop-color="#FBC6CF"/>
<stop offset="1" stop-color="#853946"/>
</linearGradient>
<clipPath id="clip0_451_175">
<rect width="1595" height="1595" fill="white"/>
</clipPath>
</defs>
</svg>
